<?xml version="1.0" encoding="utf-8"?>
<!-- Generator: Adobe Illustrator 21.1.0, SVG Export Plug-In . SVG Version: 6.00 Build 0)  -->
<svg version="1.1" id="Layer_1" xmlns="http://www.w3.org/2000/svg" xmlns:xlink="http://www.w3.org/1999/xlink" x="0px" y="0px"
	 viewBox="0 0 100 100" style="enable-background:new 0 0 100 100;" xml:space="preserve">
<style type="text/css">
	.st0{fill:#CC6100;}
	.st1{fill:#00A000;}
	.st2{fill:#006000;}
	.st3{fill:#665200;}
	.st4{fill:#878787;}
	.st5{fill:#545454;}
	.st6{fill:none;stroke:#545454;stroke-width:0.25;stroke-miterlimit:10;}
</style>
<g id="Layer_1_1_">
	<g>
		<rect x="2.5" y="2.5" class="st0" width="95" height="95"/>
		<path d="M95,5v90H5V5H95 M100,0H0v100h100V0L100,0z"/>
	</g>
</g>
<g>
	<path class="st1" d="M79.4,49.3c-2.8,0-5.4-1.3-7.2-3.3c-1.3-1.5-1-3.3-0.4-6.2c0.4-2.2,0.8-4.8,0.8-8.3c0-4.2-0.7-8.4-2.1-12.5
		c4.9,1.7,12,5.7,15.2,13.6c2.6,6.8,2.6,11.6,0,14.2C83.8,48.4,81.7,49.3,79.4,49.3L79.4,49.3z"/>
	<path class="st2" d="M71.4,20.1C76,22,82,25.8,84.8,32.9l0,0c2.5,6.5,2.5,11,0.1,13.3c-1.5,1.5-3.5,2.3-5.6,2.3
		c-2.5,0-5-1.2-6.8-3.2c-1-1.2-0.8-2.6-0.3-5.7c0.4-2.2,0.8-4.9,0.8-8.4C73.1,27.5,72.5,23.7,71.4,20.1 M69.2,17.8
		c1.1,2.9,2.5,7.7,2.6,13.6c0.1,8.1-2.8,12-0.1,14.9c2.1,2.5,5,3.6,7.8,3.6c2.4,0,4.7-0.9,6.5-2.6c4.5-4.2,1.1-12.8,0.1-14.9
		C82.3,22.4,72.4,18.8,69.2,17.8L69.2,17.8z"/>
</g>
<g id="Layer_2">
	<g id="Layer_3">
		<g id="XMLID_4_">
			<g>
				<polygon class="st3" points="39.3,78.8 34.8,85.2 21.8,75.9 8.8,66.6 13.8,60.8 26.3,69.5 				"/>
			</g>
		</g>
		<g id="XMLID_3_">
			<g>
				<path class="st4" d="M66,13.7c0.5,3.9,1,7.7,1.5,11.6L32.8,74.2c-2.2-1.2-4.3-3.5-6.5-4.7C39.7,50.4,53.1,32.3,66,13.7z"/>
				<path class="st5" d="M19.8,64.9c11.7-16.5,23.5-33,34.7-48.9c3.8-0.4,7.7-1.9,11.5-2.2C53.1,32.3,39.7,51.5,26.3,69.5
					C24.1,68.3,22.5,66.6,19.8,64.9z"/>
			</g>
			<g>
				<path class="st6" d="M66,13.7c-3.8,0.4-7.7,1.9-11.5,2.2c-11.8,16.5-23.5,33-34.7,49c2.2,1.2,4.3,3.5,6.5,4.7s4.3,3.5,6.5,4.7
					l34.7-48.9C67,21.4,66.5,17.6,66,13.7C53.1,32.3,39.7,51.5,26.3,69.5"/>
			</g>
		</g>
	</g>
</g>
</svg>
