<?xml version="1.0" encoding="utf-8"?>
<!-- Generator: Adobe Illustrator 21.1.0, SVG Export Plug-In . SVG Version: 6.00 Build 0)  -->
<svg version="1.1" xmlns="http://www.w3.org/2000/svg" xmlns:xlink="http://www.w3.org/1999/xlink" x="0px" y="0px"
	 viewBox="0 0 100 100" style="enable-background:new 0 0 100 100;" xml:space="preserve">
<style type="text/css">
	.st0{fill:#CC3000;}
	.st1{fill:url(#SVGID_1_);}
	.st2{fill:#78CE45;}
	.st3{fill:url(#SVGID_2_);}
	.st4{fill:url(#SVGID_3_);}
	.st5{fill:url(#SVGID_4_);}
	.st6{fill:url(#SVGID_5_);}
</style>
<g id="Layer_1">
	<g>
		<rect x="2.5" y="2.5" class="st0" width="95" height="95"/>
		<path d="M95,5v90H5V5H95 M100,0H0v100h100V0L100,0z"/>
	</g>
	<g>
		
			<radialGradient id="SVGID_1_" cx="27.5" cy="77.5" r="12" gradientTransform="matrix(1 0 0 -1 0 101)" gradientUnits="userSpaceOnUse">
			<stop  offset="0" style="stop-color:#94FFB6;stop-opacity:0.25"/>
			<stop  offset="1" style="stop-color:#15FF3E;stop-opacity:0.75"/>
		</radialGradient>
		<path class="st1" d="M27.5,35.5c-6.6,0-12-5.4-12-12s5.4-12,12-12s12,5.4,12,12S34.1,35.5,27.5,35.5z"/>
		<path class="st2" d="M27.5,12C33.8,12,39,17.2,39,23.5S33.8,35,27.5,35S16,29.8,16,23.5S21.2,12,27.5,12 M27.5,11
			C20.6,11,15,16.6,15,23.5S20.6,36,27.5,36S40,30.4,40,23.5S34.4,11,27.5,11L27.5,11z"/>
	</g>
	<g>
		
			<radialGradient id="SVGID_2_" cx="54.0238" cy="48.5" r="12" gradientTransform="matrix(0.84 0 0 -0.84 5.12 95.24)" gradientUnits="userSpaceOnUse">
			<stop  offset="0" style="stop-color:#94FFB6;stop-opacity:0.25"/>
			<stop  offset="1" style="stop-color:#15FF3E;stop-opacity:0.75"/>
		</radialGradient>
		<path class="st3" d="M50.5,64.6c-5.5,0-10.1-4.5-10.1-10.1S45,44.4,50.5,44.4S60.6,49,60.6,54.5S56,64.6,50.5,64.6z"/>
		<path class="st2" d="M50.5,44.8c5.3,0,9.7,4.4,9.7,9.7s-4.4,9.7-9.7,9.7s-9.7-4.4-9.7-9.7S45.2,44.8,50.5,44.8 M50.5,44
			C44.7,44,40,48.7,40,54.5S44.7,65,50.5,65S61,60.3,61,54.5S56.3,44,50.5,44L50.5,44z"/>
	</g>
	<g>
		
			<radialGradient id="SVGID_3_" cx="62.9138" cy="69.6379" r="12" gradientTransform="matrix(1.16 0 0 -1.16 -0.48 110.28)" gradientUnits="userSpaceOnUse">
			<stop  offset="0" style="stop-color:#94FFB6;stop-opacity:0.25"/>
			<stop  offset="1" style="stop-color:#15FF3E;stop-opacity:0.75"/>
		</radialGradient>
		<path class="st4" d="M72.5,43.4c-7.7,0-13.9-6.3-13.9-13.9s6.3-13.9,13.9-13.9s13.9,6.3,13.9,13.9S80.2,43.4,72.5,43.4z"/>
		<path class="st2" d="M72.5,16.2c7.3,0,13.3,6,13.3,13.3s-6,13.3-13.3,13.3s-13.3-6-13.3-13.3S65.2,16.2,72.5,16.2 M72.5,15
			c-8,0-14.5,6.5-14.5,14.5S64.5,44,72.5,44S87,37.5,87,29.5S80.5,15,72.5,15L72.5,15z"/>
	</g>
	<g>
		
			<radialGradient id="SVGID_4_" cx="81.8043" cy="29.1957" r="12" gradientTransform="matrix(0.92 0 0 -0.92 0.24 96.36)" gradientUnits="userSpaceOnUse">
			<stop  offset="0" style="stop-color:#94FFB6;stop-opacity:0.25"/>
			<stop  offset="1" style="stop-color:#15FF3E;stop-opacity:0.75"/>
		</radialGradient>
		<path class="st5" d="M75.5,80.5c-6.1,0-11-5-11-11s5-11,11-11s11,5,11,11S81.6,80.5,75.5,80.5z"/>
		<path class="st2" d="M75.5,58.9c5.8,0,10.6,4.8,10.6,10.6s-4.8,10.6-10.6,10.6s-10.6-4.8-10.6-10.6S69.7,58.9,75.5,58.9 M75.5,58
			C69.2,58,64,63.2,64,69.5S69.2,81,75.5,81S87,75.8,87,69.5S81.8,58,75.5,58L75.5,58z"/>
	</g>
	<g>
		
			<radialGradient id="SVGID_5_" cx="31.5" cy="23.5" r="12" gradientTransform="matrix(1 0 0 -1 0 101)" gradientUnits="userSpaceOnUse">
			<stop  offset="0" style="stop-color:#94FFB6;stop-opacity:0.25"/>
			<stop  offset="1" style="stop-color:#15FF3E;stop-opacity:0.75"/>
		</radialGradient>
		<path class="st6" d="M31.5,89.5c-6.6,0-12-5.4-12-12s5.4-12,12-12s12,5.4,12,12S38.1,89.5,31.5,89.5z"/>
		<path class="st2" d="M31.5,66C37.8,66,43,71.2,43,77.5S37.8,89,31.5,89S20,83.8,20,77.5S25.2,66,31.5,66 M31.5,65
			C24.6,65,19,70.6,19,77.5S24.6,90,31.5,90S44,84.4,44,77.5S38.4,65,31.5,65L31.5,65z"/>
	</g>
</g>
<g id="Layer_2">
</g>
</svg>
