<?xml version="1.0" encoding="utf-8"?>
<!-- Generator: Adobe Illustrator 21.1.0, SVG Export Plug-In . SVG Version: 6.00 Build 0)  -->
<svg version="1.1" id="Layer_1" xmlns="http://www.w3.org/2000/svg" xmlns:xlink="http://www.w3.org/1999/xlink" x="0px" y="0px"
	 viewBox="0 0 50 50" style="enable-background:new 0 0 50 50;" xml:space="preserve">
<style type="text/css">
	.st0{fill:#F2F2F2;}
	.st1{fill:#7A5F2E;stroke:#000000;stroke-width:0.25;stroke-miterlimit:10;}
	.st2{fill:#9B9B9B;stroke:#000000;stroke-width:0.5;stroke-miterlimit:10;}
</style>
<path class="st0" d="M23.5,39.3c-0.3-1.4,0.1-2.9,0.8-3.5l0,0c0.8-0.5,1.6,0.2,1.9,1.5l1.8,8c0.1,1.2,0.1,1.8,0,2
	C27.5,47.7,26,45.1,23.5,39.3z"/>
<path class="st0" d="M26.2,39c0.4-1.3,0.2-2.9-0.6-3.6l0,0c-0.7-0.7-1.6-0.2-2,1L21.3,44c-0.2,1.1-0.3,1.8-0.1,2
	C21.6,46.6,23.2,44.3,26.2,39z"/>
<path class="st1" d="M25,41.3L25,41.3c0.6,0,1-0.7,1-1.5l0.2-33.4c0-0.8-0.5-1.5-1-1.5l0,0c-0.6,0-1,0.7-1,1.5l-0.2,33.4
	C23.9,40.6,24.4,41.3,25,41.3z"/>
<path class="st2" d="M28.6,10.5c-2.5,0-4.9,0-7.4,0l3.7-7.9L28.6,10.5z"/>
<path class="st0" d="M24.4,39.5c-0.5-1.1-0.5-2.8,0-3.6l0,0c0.6-0.8,1.6-0.6,2.1,0.5l3.4,6.6c0.4,1,0.5,1.7,0.4,1.9
	C30.1,45.6,28.1,43.8,24.4,39.5z"/>
<path class="st0" d="M25.7,39.2c0.6-1.1,0.7-2.7,0.2-3.7l0,0c-0.5-1-1.5-0.9-2.1,0.1l-3.6,6.2c-0.4,1-0.6,1.6-0.5,1.9
	C19.9,44.5,21.9,43,25.7,39.2z"/>
</svg>
