<?xml version="1.0" encoding="utf-8"?>
<!-- Generator: Adobe Illustrator 21.1.0, SVG Export Plug-In . SVG Version: 6.00 Build 0)  -->
<svg version="1.1" id="Layer_1" xmlns="http://www.w3.org/2000/svg" xmlns:xlink="http://www.w3.org/1999/xlink" x="0px" y="0px"
	 viewBox="0 0 100 100" style="enable-background:new 0 0 100 100;" xml:space="preserve">
<style type="text/css">
	.st0{fill:#4F829E;}
	.st1{fill:#F2F2F2;}
	.st2{fill:#7A5F2E;stroke:#000000;stroke-width:0.5;stroke-miterlimit:10;}
	.st3{fill:none;stroke:#000000;stroke-width:3;stroke-miterlimit:10;}
	.st4{fill:#9B9B9B;stroke:#000000;stroke-miterlimit:10;}
</style>
<g id="Layer_1_1_">
	<g>
		<rect x="2.5" y="2.5" class="st0" width="95" height="95"/>
		<path d="M95,5v90H5V5H95 M100,0H0v100h100V0L100,0z"/>
	</g>
</g>
<path class="st1" d="M35.5,53.1c1.5-1.7,3.8-2.7,5.2-2.2l0,0c1.4,0.5,1.4,2.3,0,4l-8.4,9.9c-1.4,1.3-2.2,1.9-2.6,1.9
	C28.8,66.5,30.6,62,35.5,53.1z"/>
<path class="st1" d="M38.5,56.4c2.1-0.7,3.9-2.6,4-4.3l0,0c0.2-1.6-1.4-2.3-3.3-1.7l-11.8,4.2c-1.6,0.8-2.6,1.4-2.7,1.7
	C24.3,57.6,28.9,57.5,38.5,56.4z"/>
<path class="st2" d="M73.8,90.9c1.4-4.7,6.9-28.6-8.3-51.2C51.2,18.2,28.1,13,23.1,12.2c1.4-1.2,2.8-2.3,4-3.8
	c6.2,1.6,27.6,8.2,41.2,29c14.6,21.9,10.8,44.3,10,50.4C76.6,88.6,75.2,89.8,73.8,90.9z"/>
<path class="st3" d="M23.5,11.9C23.3,20,24,32.8,29.2,47.3c1.9,5.4,4.6,12.6,10.3,20.1C50.1,81.5,64.8,88,73.8,90.9"/>
<path class="st2" d="M34.4,57L34.4,57c0.6,0.7,2,0.7,3-0.1L80,25.2c1-0.8,1.4-2.1,0.9-2.8l0,0c-0.6-0.7-2-0.7-3,0.1L35.3,54.2
	C34.3,55,33.9,56.3,34.4,57z"/>
<path class="st4" d="M77.2,32.3c-2.5-3.2-4.9-6.5-7.4-9.7L83.5,20L77.2,32.3z"/>
<path class="st1" d="M36.2,54.6c0.9-1.8,3.1-3.4,4.6-3.5l0,0c1.7,0,2.4,1.5,1.5,3.3l-5.1,10.8c-0.9,1.5-1.6,2.4-2,2.4
	C34.1,67.8,34.4,63.5,36.2,54.6z"/>
<path class="st1" d="M37.9,56c2.1-0.2,4.2-1.7,4.9-3.4l0,0c0.7-1.7-0.4-2.9-2.3-2.7L29,51.1c-1.7,0.4-2.7,0.7-2.9,1.2
	C25.3,53.4,29.3,54.6,37.9,56z"/>
</svg>
