<?xml version="1.0" encoding="utf-8"?>
<!-- Generator: Adobe Illustrator 21.1.0, SVG Export Plug-In . SVG Version: 6.00 Build 0)  -->
<svg version="1.1" id="Layer_1" xmlns="http://www.w3.org/2000/svg" xmlns:xlink="http://www.w3.org/1999/xlink" x="0px" y="0px"
	 viewBox="0 0 100 100" style="enable-background:new 0 0 100 100;" xml:space="preserve">
<style type="text/css">
	.st0{fill:#AF825D;stroke:#895634;stroke-width:0.5;stroke-miterlimit:10;}
	.st1{fill:#663E21;stroke:#592F10;stroke-miterlimit:10;}
	.st2{fill:#775029;stroke:#592F10;stroke-miterlimit:10;}
	.st3{display:none;fill:#775029;stroke:#592F10;stroke-miterlimit:10;}
	.st4{fill:#604024;stroke:#592F10;stroke-miterlimit:10;}
	.st5{display:none;fill:#604024;stroke:#592F10;stroke-miterlimit:10;}
</style>
<ellipse transform="matrix(1.271159e-02 -0.9999 0.9999 1.271159e-02 50.2415 92.9419)" class="st0" cx="72.2" cy="21" rx="2.4" ry="2.4"/>
<ellipse transform="matrix(8.380949e-03 -1 1 8.380949e-03 -68.2964 126.3158)" class="st0" cx="29.5" cy="97.6" rx="2.4" ry="2.4"/>
<path class="st1" d="M32.3,92.5c0.3,3.6-0.4,4.8-0.4,4.8l-4.7,0c-1.1-6,0.3-9.6,0.3-9.6"/>
<ellipse transform="matrix(1 -4.330892e-03 4.330892e-03 1 -0.4161 0.3152)" class="st0" cx="72.6" cy="96.2" rx="2.4" ry="2.4"/>
<path class="st1" d="M74.7,86.2c0,0,1.4,3.6,0.3,9.6l-4.7,0c0,0-0.7-1.2-0.4-4.8"/>
<path class="st2" d="M69.4,26.2c-0.3-3.6,0.4-4.8,0.4-4.8l4.7,0.1c1.1,6-0.4,9.6-0.4,9.6"/>
<ellipse class="st0" cx="26.8" cy="19.7" rx="2.4" ry="2.4"/>
<path class="st2" d="M24.7,29.7c0,0-1.4-3.6-0.2-9.6h4.7c0,0,0.7,1.2,0.4,4.8"/>
<g>
	<path class="st2" d="M49,34.3c-9.1,0-16.5-7.6-16.5-16.8S39.9,0.6,49,0.6s16.5,7.6,16.5,16.8S58,34.3,49,34.3z"/>
	<path class="st3" d="M49,1.2c8.7,0,15.9,7.3,15.9,16.2S57.7,33.7,49,33.7s-15.9-7.3-15.9-16.2S40.3,1.2,49,1.2 M49,0
		c-9.4,0-17,7.8-17,17.4s7.6,17.4,17,17.4s17-7.8,17-17.4S58.4,0,49,0z"/>
</g>
<g>
	<path class="st4" d="M50.5,97.9c-0.6,0-1.2,0-1.6,0c-3.8-0.2-16.5-1.8-24.1-13.6c-4.9-7.6-5.1-15.6-5.3-24.9
		c-0.2-11.3-0.5-24.1,7.3-32c6.2-6.4,14.6-6.4,22-6.5h0.7c5.2,0,16,0,23.4,7.7c6,6.3,6.3,14.1,7.1,28.5c0.7,12.9,1.1,19.4-2.9,26.1
		C71.7,92.2,61.4,97.9,50.5,97.9z"/>
	<path class="st5" d="M49.5,21.5c5.2,0,15.8,0,22.9,7.5c5.8,6,6.2,13.8,6.9,28.2c0.7,12.8,0.9,19.3-2.8,25.7
		c-5.2,8.8-15.4,14.4-26.1,14.4c-0.6,0-1.1,0-1.6,0c-3.6-0.2-16.2-1.8-23.6-13.4c-4.8-7.5-4.9-15-5.2-24.7
		c-0.2-11.2-0.5-23.8,7.2-31.6c6.1-6.1,14.3-6.1,21.6-6.1H49.5L49.5,21.5 M49.5,20.3c-0.2,0-0.5,0-0.7,0c-7.4,0-16,0-22.3,6.6
		c-8,8.2-7.6,21.1-7.4,32.5c0.2,9.5,0.4,17.6,5.3,25.3c8,12.5,21.7,13.7,24.4,13.8c0.6,0,1.2,0,1.8,0c11.2,0,21.7-6,27-15
		c4-6.9,3.6-13.4,3.1-26.5c-0.7-14.3-1.2-22.5-7.3-28.9C66.1,20.6,55.5,20.3,49.5,20.3L49.5,20.3z"/>
</g>
<g>
	<path class="st2" d="M50.3,63.3c-0.6,0-1.2,0-1.6,0c-3.8-0.1-16.5-1-24.1-7.2c-4.9-4-5.1-8.2-5.3-13.1c-0.2-4.1-0.3-8.5,2.1-12.2
		c1-1.5,2.4-3,5.2-4.6c8.1-4.7,17.7-5.3,22.9-5.2c4.3,0.3,15.4,1.3,23.2,5.8c2,1.2,3.3,2.2,4.3,3.6c1.9,2.8,2.3,6.3,2.7,11.4
		c0.7,6.8,1.1,10.2-2.9,13.7C71.5,60.2,61.2,63.3,50.3,63.3z"/>
	<path class="st3" d="M49.3,23c5.2,0,15.8,0,22.9,3.9c5.8,3.2,6.2,7.3,6.9,14.8c0.7,6.7,0.9,10.1-2.8,13.6C71.2,60,61,63,50.3,63
		c-0.6,0-1.1,0-1.6,0c-3.6-0.1-16.2-1-23.6-7c-4.8-3.9-4.9-7.9-5.2-13C19.6,37,19.4,30.4,27,26.3C33.1,23,41.3,23,48.6,23H49.3
		L49.3,23 M49.3,22.4c-0.2,0-0.5,0-0.7,0c-7.4,0-16,0-22.3,3.5c-8,4.3-7.6,11.1-7.4,17.1c0.2,5,0.4,9.2,5.3,13.3
		c8,6.6,21.7,7.2,24.4,7.3c0.6,0,1.2,0,1.8,0c11.2,0,21.7-3.2,27-7.9c4-3.6,3.6-7,3.1-13.9c-0.7-7.5-1.2-11.8-7.3-15.2
		C65.9,22.5,55.3,22.4,49.3,22.4L49.3,22.4z"/>
</g>
</svg>
