<?xml version="1.0" encoding="utf-8"?>
<!-- Generator: Adobe Illustrator 21.1.0, SVG Export Plug-In . SVG Version: 6.00 Build 0)  -->
<svg version="1.1" id="Layer_1" xmlns="http://www.w3.org/2000/svg" xmlns:xlink="http://www.w3.org/1999/xlink" x="0px" y="0px"
	 viewBox="0 0 250 250" style="enable-background:new 0 0 250 250;" xml:space="preserve">
<style type="text/css">
	.st0{fill:#FFD62C;}
	.st1{fill:#FFA02E;}
	.st2{fill:#FF812C;}
	.st3{fill:#FF692E;}
	.st4{fill:#F73123;}
</style>
<polygon class="st0" points="249.7,154.7 161.7,247.8 36.9,218.2 0.3,95.3 88.3,2.2 213.1,31.8 "/>
<polygon class="st1" points="148.2,25 216.2,102.7 188.9,202.4 93.6,224.3 25.6,146.5 52.9,46.9 "/>
<polygon class="st2" points="125.7,202.3 53.9,172 44.2,94.8 106.3,47.7 178.1,78 187.8,155.2 "/>
<polygon class="st3" points="113.8,188.4 63.5,156.8 65.7,97.4 118.2,69.6 168.5,101.2 166.3,160.6 "/>
<polygon class="st4" points="90,95.8 130.3,92.5 153.3,125.7 136,162.2 95.7,165.5 72.7,132.3 "/>
</svg>
