<?xml version="1.0" encoding="utf-8"?>
<!-- Generator: Adobe Illustrator 21.1.0, SVG Export Plug-In . SVG Version: 6.00 Build 0)  -->
<svg version="1.1" id="Layer_1" xmlns="http://www.w3.org/2000/svg" xmlns:xlink="http://www.w3.org/1999/xlink" x="0px" y="0px"
	 viewBox="0 0 250 250" style="enable-background:new 0 0 250 250;" xml:space="preserve">
<style type="text/css">
	.st0{fill:#FFD62C;}
	.st1{fill:#FFA02E;}
	.st2{fill:#FF812C;}
	.st3{fill:#FF692E;}
	.st4{fill:#F73123;}
</style>
<polygon class="st0" points="240.2,153.1 156.6,242.4 37.9,214 3.1,96.2 86.8,6.9 205.4,35.3 "/>
<polygon class="st1" points="148.2,26.9 214.1,103.1 187.7,201 95.2,222.4 29.2,146.1 55.7,48.3 "/>
<polygon class="st2" points="131.8,201.5 56.9,169.9 46.8,89.5 111.6,40.4 186.4,71.9 196.6,152.4 "/>
<polygon class="st3" points="113.7,188.4 62,155.8 64.2,94.4 118.3,65.7 170,98.3 167.8,159.7 "/>
<polygon class="st4" points="91.4,92.7 135.1,89.1 160,125.4 141.3,165.3 97.6,168.9 72.7,132.6 "/>
</svg>
