<?xml version="1.0" encoding="utf-8"?>
<!-- Generator: Adobe Illustrator 21.1.0, SVG Export Plug-In . SVG Version: 6.00 Build 0)  -->
<svg version="1.1" id="Layer_1" xmlns="http://www.w3.org/2000/svg" xmlns:xlink="http://www.w3.org/1999/xlink" x="0px" y="0px"
	 viewBox="0 0 100 100" style="enable-background:new 0 0 100 100;" xml:space="preserve">
<style type="text/css">
	.st0{fill:#A13EAF;}
	.st1{fill:#E8590A;}
	.st2{fill:#E5250C;}
	.st3{fill:none;stroke:#84460F;stroke-width:5;stroke-miterlimit:10;}
</style>
<g>
	<rect x="2.5" y="2.5" class="st0" width="95" height="95"/>
	<path d="M95,5v90H5V5H95 M100,0H0v100h100V0L100,0z"/>
</g>
<polygon class="st1" points="42.2,34 54.3,19.3 73.2,22.4 79.9,40.3 67.8,55.1 48.9,51.9 "/>
<polygon class="st2" points="49.7,30.7 60.4,25.1 70.6,31.5 70.2,43.6 59.5,49.2 49.2,42.8 "/>
<line class="st3" x1="60.8" y1="84.7" x2="26.7" y2="51.3"/>
<line class="st3" x1="32" y1="34.5" x2="35" y2="42.4"/>
<line class="st3" x1="26.7" y1="51.3" x2="35" y2="42.4"/>
<line class="st3" x1="19.9" y1="40.7" x2="26.7" y2="51.3"/>
<line class="st3" x1="23.3" y1="29.7" x2="19.9" y2="40.7"/>
<line class="st3" x1="12.5" y1="48.4" x2="26.7" y2="51.3"/>
</svg>
