<?xml version="1.0" encoding="utf-8"?>
<!-- Generator: Adobe Illustrator 21.1.0, SVG Export Plug-In . SVG Version: 6.00 Build 0)  -->
<svg version="1.1" id="Layer_1" xmlns="http://www.w3.org/2000/svg" xmlns:xlink="http://www.w3.org/1999/xlink" x="0px" y="0px"
	 viewBox="0 0 40 40" style="enable-background:new 0 0 40 40;" xml:space="preserve">
<style type="text/css">
	.st0{fill:#665200;}
	.st1{fill:#089604;stroke:#000000;stroke-width:0.25;stroke-miterlimit:10;}
	.st2{fill:#089604;stroke:#000000;stroke-width:0.5;stroke-miterlimit:10;}
	.st3{fill:#878787;stroke:#545454;stroke-width:0.5;stroke-miterlimit:10;}
	.st4{fill:#545454;}
</style>
<path class="st0" d="M34.2,19.2L34.2,19.2c-0.3,0.2-0.7,0-0.8-0.3L30,9.8C29.8,9.5,30,9,30.3,9l0,0c0.3-0.2,0.7,0,0.8,0.3l3.4,9.1
	C34.7,18.8,34.5,19.1,34.2,19.2z"/>
<path class="st1" d="M29.1,18.1c1.7,0.6,2.7,0.4,3.1,0.1c0.8-0.5,1-1.4,1.6-1.6c0.5-0.1,0.9,0.3,1.3,0.7c0.1,0.2,0.4,0.6,0.3,1
	c0,0.6-0.5,1.1-0.7,1.3c-0.1,0.1-0.5,0.5-0.8,0.6s-0.7,0.1-1,0.1c-0.7,0.1-1,0.6-1.9,1.3c-0.4,0.3-1,0.8-1.9,1.3"/>
<circle class="st2" cx="20" cy="20" r="10"/>
<ellipse transform="matrix(0.9767 -0.2145 0.2145 0.9767 -1.3131 6.7824)" class="st3" cx="30.6" cy="9.4" rx="2.2" ry="2.2"/>
<path class="st4" d="M31.4,7.2c-0.8,0.2-1.6,0.3-2.4,0.5l1-1.4L31.4,7.2z"/>
<path class="st4" d="M29.8,11.8c0.8-0.2,1.6-0.3,2.4-0.5l-1,1.4L29.8,11.8z"/>
<path class="st4" d="M32.9,10.3c-0.1-0.8-0.3-1.6-0.4-2.4l1.4,1L32.9,10.3z"/>
<path class="st4" d="M28.3,8.6c0.1,0.8,0.3,1.6,0.4,2.4l-1.4-1L28.3,8.6z"/>
<path class="st4" d="M32.8,8.4c-0.7-0.5-1.4-0.9-2-1.4l1.7-0.3L32.8,8.4z"/>
<path class="st4" d="M28.4,10.6c0.7,0.5,1.4,0.9,2,1.4l-1.7,0.3L28.4,10.6z"/>
<path class="st4" d="M31.6,11.7c0.5-0.7,1-1.3,1.5-2l0.3,1.7L31.6,11.7z"/>
<path class="st4" d="M29.6,7.3c-0.5,0.7-1,1.3-1.5,2l-0.3-1.7L29.6,7.3z"/>
</svg>
