<?xml version="1.0" encoding="utf-8"?>
<!-- Generator: Adobe Illustrator 21.1.0, SVG Export Plug-In . SVG Version: 6.00 Build 0)  -->
<svg version="1.1" id="Layer_1" xmlns="http://www.w3.org/2000/svg" xmlns:xlink="http://www.w3.org/1999/xlink" x="0px" y="0px"
	 viewBox="0 0 100 100" style="enable-background:new 0 0 100 100;" xml:space="preserve">
<style type="text/css">
	.st0{fill:#C4B957;stroke:#000000;stroke-width:3;stroke-miterlimit:10;}
	.st1{fill:none;stroke:#000000;stroke-width:3;stroke-miterlimit:10;}
</style>
<path class="st0" d="M84.3,66.2c2,6.5,5.4,17.5,0.4,24.7c-6.5,9.4-23.3,6.4-38.3,3.8c-15.4-2.7-28-5-32-14.8
	c-4.2-10.3,3.4-22.7,5.1-25.4c12.1-18.8,33.9-16.5,36-27.2c0.9-4.6-1.8-11.7-17.1-22.9c9.8-0.6,19.6-1.2,29.3-1.9
	c-5.6,11.4-5.7,19.9-4.6,25.6C66,43.6,78.3,46.6,84.3,66.2z"/>
<path class="st1" d="M45,48.5c0.7-1,2.7-3.3,5.7-3.8c5.6-1,11.4,4.5,11.5,9c0.1,2.9-2.1,3.8-8.1,11.2c-4.8,6-7.2,9-6.8,12
	c0.6,4,5.1,7.6,10,8.1c5.5,0.5,9.3-3.2,9.8-3.7"/>
<line class="st1" x1="52.5" y1="37.5" x2="59.3" y2="92.3"/>
</svg>
