<?xml version="1.0" encoding="utf-8"?>
<!-- Generator: Adobe Illustrator 21.1.0, SVG Export Plug-In . SVG Version: 6.00 Build 0)  -->
<svg version="1.1" id="Layer_1" xmlns="http://www.w3.org/2000/svg" xmlns:xlink="http://www.w3.org/1999/xlink" x="0px" y="0px"
	 viewBox="0 0 100 100" style="enable-background:new 0 0 100 100;" xml:space="preserve">
<style type="text/css">
	.st0{opacity:0.5;}
	.st1{fill:#FFFFFF;}
	.st2{fill:none;stroke:#FFFFFF;stroke-width:3;stroke-miterlimit:10;}
</style>
<rect class="st0" width="100" height="100"/>
<path class="st1" d="M68.1,76.9H31.9c-2,0-3.7-1.7-3.7-3.7V48.4c0-2,1.7-3.7,3.7-3.7h36.3c2,0,3.7,1.7,3.7,3.7v24.8
	C71.8,75.2,70.2,76.9,68.1,76.9z"/>
<ellipse class="st2" cx="50" cy="46.3" rx="15.6" ry="13.9"/>
<ellipse cx="49.4" cy="57" rx="4.1" ry="3.9"/>
<path d="M52.6,67.8h-6.2c0.7-3.4,1.4-6.8,2.2-10.3c0.9,0.1,1.8,0.1,2.6,0.2C51.6,61.1,52.1,64.4,52.6,67.8z"/>
</svg>
