<?xml version="1.0" encoding="utf-8"?>
<!-- Generator: Adobe Illustrator 21.1.0, SVG Export Plug-In . SVG Version: 6.00 Build 0)  -->
<svg version="1.1" id="Layer_1" xmlns="http://www.w3.org/2000/svg" xmlns:xlink="http://www.w3.org/1999/xlink" x="0px" y="0px"
	 viewBox="0 0 100 100" style="enable-background:new 0 0 100 100;" xml:space="preserve">
<style type="text/css">
	.st0{fill:#FFFFFF;stroke:#472828;stroke-width:0.5;stroke-miterlimit:10;}
	.st1{fill:#BA3838;stroke:#5E0B0B;stroke-width:0.5;stroke-miterlimit:10;}
	.st2{fill:#CE3E3E;stroke:#5E0B0B;stroke-width:0.5;stroke-miterlimit:10;}
	.st3{fill:#E26161;stroke:#5E0B0B;stroke-width:0.5;stroke-miterlimit:10;}
	.st4{fill:#C63838;stroke:#5E0B0B;stroke-width:0.5;stroke-miterlimit:10;}
	.st5{fill:#D15252;stroke:#5E0B0B;stroke-width:0.5;stroke-miterlimit:10;}
</style>
<path class="st0" d="M1.7,49.9"/>
<path class="st1" d="M1.7,49.9v15c4.4,3.1,13.7,8.8,26.9,10.5c14.8,1.9,26.3-2.3,31.4-4.5c4.5-3.1,8.5-4.5,11.2-5.2
	c4.2-1.1,7.8-1.3,11.9-1.5c3.1-0.1,5.7-0.1,7.5,0c0.9,0,2.7-0.3,4.5-1.5c1.1-0.8,1.8-1.6,2.2-2.2c0-5.7,0-11.4,0-17.1"/>
<path class="st2" d="M28.5,27.5c-5.2-0.1-10.9-0.3-16.4,3C5.6,34.4-0.6,43.2,1.7,49.9c2.4,7.3,13.6,8.9,23.9,10.5
	c7.7,1.2,19,1.7,32.8-1.5c3-1.6,7.5-3.7,13.2-4.9c11.2-2.2,16.1,1.2,21.1-2.6c4.4-3.4,6.5-10.5,4.5-16.5c-1.5-4.2-4.6-6.6-6-7.5
	c-1.6-0.7-3.7-1.4-6.2-1.9c-4.3-0.7-8-0.2-10.3,0.4c-2.2,2-5.6,4.7-10.5,6c-2.4,0.6-5.7,1.1-19.4-1.5C33.8,28.4,33.3,27.6,28.5,27.5
	z"/>
<path class="st3" d="M34.5,46.2c-0.4,1.1-1.7,1.7-3,2.3c-0.7,0.3-2.1,1-4,1c-0.7,0-2.3,0-4-1c-0.8-0.5-1.9-1.1-2.4-2.3
	c-1.1-2.5,1.1-5.3,1.4-5.7c0.3-0.4,2-2.4,4.5-2.6C31.5,37.7,35.6,43.5,34.5,46.2z"/>
<path class="st4" d="M30.1,61.3"/>
<path class="st5" d="M27,27.4c-3,4.4,3.1,11.1,3.1,11.1c-2.9-0.9-5.5,0.2-5.5,0.2c-0.9-6.7-6.9-10.6-6.9-10.6"/>
<path class="st5" d="M15.9,59.1C15.6,52.8,23,48.6,23,48.6s-2.5-1.2-2.1-4.1c0,0-5.2,12.1-12.7,11.9"/>
<path class="st5" d="M41.7,61.2c-0.8-1.6-1.9-3.4-3.2-5.2c-2.4-3.3-4.9-5.8-7-7.5c0.3-0.1,1.2-0.3,2-1c1-0.9,1.1-2,1.1-2.4
	c0,0,5.5,10.9,19.9,14.6"/>
<path class="st5" d="M95.9,47.7C79.7,35,34.1,42.6,34.1,42.6c-0.4-1.3-2.3-3-2.3-3c12.2,0.2,27.4-7.2,27.4-7.2S70.3,32,74.8,26
	c0,0,9-3,16.4,1.5c1,0.8,6.5,5,6.8,10.4c0.1,3-0.8,6-0.8,6C96.8,45.2,95.9,47.7,95.9,47.7L95.9,47.7z"/>
</svg>
