<?xml version="1.0" encoding="utf-8"?>
<!-- Generator: Adobe Illustrator 21.1.0, SVG Export Plug-In . SVG Version: 6.00 Build 0)  -->
<svg version="1.1" xmlns="http://www.w3.org/2000/svg" xmlns:xlink="http://www.w3.org/1999/xlink" x="0px" y="0px"
	 viewBox="0 0 100 100" style="enable-background:new 0 0 100 100;" xml:space="preserve">
<style type="text/css">
	.st0{fill:#474747;}
	.st1{fill:#D34A4A;}
</style>
<g id="Layer_1">
	<g>
		<rect x="2.5" y="2.5" class="st0" width="95" height="95"/>
		<path d="M95,5v90H5V5H95 M100,0H0v100h100V0L100,0z"/>
	</g>
</g>
<g id="Layer_2">
	<g>
		<path class="st1" d="M79.6,86.5c-1.2,0-2.3-0.5-3.2-1.3L16.3,25.1c-0.8-0.8-1.3-2-1.3-3.2c0-1.2,0.5-2.3,1.3-3.2s2-1.3,3.2-1.3
			c1.2,0,2.3,0.5,3.2,1.3l60.1,60.1c1.8,1.8,1.8,4.6,0,6.4C81.9,86.1,80.8,86.5,79.6,86.5z"/>
		<path d="M19.4,18.5c0.9,0,1.8,0.4,2.5,1L82,79.6c0.7,0.7,1,1.5,1,2.5c0,0.9-0.4,1.8-1,2.5c-0.7,0.7-1.5,1-2.5,1s-1.8-0.4-2.5-1
			L17,24.4c-1.4-1.4-1.4-3.6,0-4.9C17.6,18.8,18.5,18.5,19.4,18.5 M19.4,16.5c-1.4,0-2.8,0.5-3.9,1.6c-2.1,2.1-2.1,5.6,0,7.8
			l60.1,60.1c1.1,1.1,2.5,1.6,3.9,1.6c1.4,0,2.8-0.5,3.9-1.6c2.1-2.1,2.1-5.6,0-7.8L23.3,18.1C22.3,17,20.9,16.5,19.4,16.5
			L19.4,16.5z"/>
	</g>
	<g>
		<path class="st1" d="M19.4,86.5c-1.2,0-2.3-0.5-3.2-1.3s-1.3-2-1.3-3.2s0.5-2.3,1.3-3.2l60.1-60.1c0.8-0.8,2-1.3,3.2-1.3
			c1.2,0,2.3,0.5,3.2,1.3s1.3,2,1.3,3.2c0,1.2-0.5,2.3-1.3,3.2L22.6,85.2C21.8,86.1,20.7,86.5,19.4,86.5z"/>
		<path d="M79.6,18.5c0.9,0,1.8,0.4,2.5,1c1.4,1.4,1.4,3.6,0,4.9L21.9,84.5c-0.7,0.7-1.5,1-2.5,1c-0.9,0-1.8-0.4-2.5-1
			c-0.7-0.7-1-1.5-1-2.5c0-0.9,0.4-1.8,1-2.5l60.1-60.1C77.7,18.8,78.6,18.5,79.6,18.5 M79.6,16.5c-1.4,0-2.8,0.5-3.9,1.6L15.6,78.2
			c-2.1,2.1-2.1,5.6,0,7.8l0,0c1.1,1.1,2.5,1.6,3.9,1.6c1.4,0,2.8-0.5,3.9-1.6l60.1-60.1c2.1-2.1,2.1-5.6,0-7.8h0
			C82.4,17,81,16.5,79.6,16.5L79.6,16.5z"/>
	</g>
</g>
</svg>
