<?xml version="1.0" encoding="utf-8"?>
<!-- Generator: Adobe Illustrator 21.1.0, SVG Export Plug-In . SVG Version: 6.00 Build 0)  -->
<svg version="1.1" id="Layer_1" xmlns="http://www.w3.org/2000/svg" xmlns:xlink="http://www.w3.org/1999/xlink" x="0px" y="0px"
	 viewBox="0 0 40 40" style="enable-background:new 0 0 40 40;" xml:space="preserve">
<style type="text/css">
	.st0{fill:#665200;}
	.st1{fill:#878787;stroke:#545454;stroke-miterlimit:10;}
	.st2{fill:#D34A4A;stroke:#000000;stroke-width:0.5;stroke-miterlimit:10;}
	.st3{fill:#D34A4A;stroke:#000000;stroke-width:0.25;stroke-miterlimit:10;}
</style>
<path class="st0" d="M34.2,18.5L34.2,18.5c-0.3,0.1-0.7-0.2-0.7-0.5l-1.4-9.6c-0.1-0.3,0.2-0.7,0.5-0.7v0c0.3-0.1,0.7,0.2,0.7,0.5
	l1.4,9.6C34.8,18.2,34.5,18.5,34.2,18.5z"/>
<path class="st1" d="M37.2,9.5c-0.3-0.3-2-1.8-4.4-1.5c-2.6,0.3-3.9,2.4-4.1,2.8c-0.2-1.6-0.4-3.3-0.7-4.9c0.9,0.3,2.5,0.8,4.5,0.4
	c2-0.3,3.3-1.2,4.1-1.7C36.8,6.3,37,7.9,37.2,9.5z"/>
<g id="Layer_2">
	<circle class="st2" cx="20" cy="20" r="10"/>
	<path class="st3" d="M29.6,18.4c1.6,0.8,2.6,0.7,3.1,0.4c0.8-0.4,1.1-1.3,1.8-1.4c0.5,0,0.9,0.4,1.2,0.8c0.1,0.2,0.3,0.6,0.2,1
		c-0.1,0.6-0.6,1-0.8,1.2c-0.1,0.1-0.5,0.4-0.9,0.5s-0.7,0-1,0c-0.7,0-1.1,0.5-2,1.1c-0.4,0.3-1.1,0.7-2,1.1"/>
</g>
</svg>
