<?xml version="1.0" encoding="utf-8"?>
<!-- Generator: Adobe Illustrator 21.1.0, SVG Export Plug-In . SVG Version: 6.00 Build 0)  -->
<svg version="1.1" id="Layer_1" xmlns="http://www.w3.org/2000/svg" xmlns:xlink="http://www.w3.org/1999/xlink" x="0px" y="0px"
	 viewBox="0 0 40 40" style="enable-background:new 0 0 40 40;" xml:space="preserve">
<style type="text/css">
	.st0{fill:#D34A4A;stroke:#000000;stroke-width:0.25;stroke-miterlimit:10;}
	.st1{fill:#D34A4A;stroke:#000000;stroke-width:0.5;stroke-miterlimit:10;}
	.st2{fill:url(#SVGID_1_);}
	.st3{fill:#665200;}
	.st4{fill:#878787;stroke:#545454;stroke-miterlimit:10;}
	.st5{fill:url(#SVGID_2_);}
</style>
<g id="Layer_2">
	<path class="st0" d="M16.3,14.3c-1.8-1.9-2.9-2.4-3.5-2.4c-1.1-0.1-1.7,0.6-2.6,0.2c-0.6-0.3-0.8-0.9-1.3-1.5c0-0.2-0.1-0.7,0.1-1
		c0.4-0.5,1.1-0.7,1.3-0.8c0.2,0,0.5-0.1,1.2,0.2c0.6,0.2,0.9,0.4,1.3,0.6c0.9,0.4,1.5,0.3,2.7,0.1c0.6-0.1,1.5,0.1,2.7,0.1"/>
	<circle class="st1" cx="20" cy="20" r="10"/>
</g>
<linearGradient id="SVGID_1_" gradientUnits="userSpaceOnUse" x1="-656.4779" y1="162.0209" x2="-654.9164" y2="162.0209" gradientTransform="matrix(-2.2666 1.7466 1.5995 1.0278 -1733.6523 979.7579)">
	<stop  offset="0" style="stop-color:#FFFFFF"/>
	<stop  offset="5.620724e-02" style="stop-color:#F9F9F9"/>
	<stop  offset="0.2389" style="stop-color:#EDEDED"/>
	<stop  offset="0.4794" style="stop-color:#E5E5E5"/>
	<stop  offset="1" style="stop-color:#E3E3E3"/>
</linearGradient>
<path class="st2" d="M13.7,0c-2.2,0.3-4,0.6-6.2,0.9c0.5,0.3,1.1,0.8,2.1,0.9c2.2-0.1,3.8-0.3,6.2-0.8"/>
<path class="st3" d="M12.8,13.2L12.8,13.2c-0.2,0.3-0.6,0.3-0.9,0L4.7,6.7c-0.3-0.2-0.3-0.6,0-0.9l0,0c0.2-0.3,0.6-0.3,0.9,0
	l7.2,6.5C13,12.5,13,12.9,12.8,13.2z"/>
<path class="st4" d="M9.4,4.4C9,4.3,6.7,4.3,5,6c-1.8,1.9-1.5,4.4-1.4,4.7C2.4,9.6,1.2,8.5,0,7.4c0.9-0.3,2.4-1,3.8-2.5
	c1.3-1.5,1.8-3,2.1-3.9C7,2.1,8.2,3.2,9.4,4.4z"/>
<path class="st0" d="M10.1,19c-0.2-1.2-0.6-2.1-0.6-2.7c0-1.2,0-1.9-0.6-2.7c-0.2-0.3-0.6-0.6-0.8-1.1c-0.5-0.7-0.4-1-0.4-1.2
	c0-0.2,0.1-1,0.5-1.4c0.3-0.3,0.8-0.3,1-0.3c0.7,0.3,1.3,0.4,1.7,1c0.5,0.9-0.1,1.5,0.3,2.6c0.2,0.7,0.8,1.6,3,3"/>
<linearGradient id="SVGID_2_" gradientUnits="userSpaceOnUse" x1="-654.6666" y1="164.5875" x2="-653.1052" y2="164.5875" gradientTransform="matrix(-2.2666 1.7466 1.5995 1.0278 -1733.6523 979.7579)">
	<stop  offset="0" style="stop-color:#FFFFFF"/>
	<stop  offset="5.620724e-02" style="stop-color:#F9F9F9"/>
	<stop  offset="0.2389" style="stop-color:#EDEDED"/>
	<stop  offset="0.4794" style="stop-color:#E5E5E5"/>
	<stop  offset="1" style="stop-color:#E3E3E3"/>
</linearGradient>
<path class="st5" d="M13.7,5.8c-2.2,0.3-4,0.6-6.2,0.9c0.5,0.3,1.1,0.8,2.1,0.9c2.2-0.1,3.8-0.3,6.2-0.8"/>
</svg>
