<?xml version="1.0" encoding="utf-8"?>
<!-- Generator: Adobe Illustrator 21.1.0, SVG Export Plug-In . SVG Version: 6.00 Build 0)  -->
<svg version="1.1" id="Layer_1" xmlns="http://www.w3.org/2000/svg" xmlns:xlink="http://www.w3.org/1999/xlink" x="0px" y="0px"
	 viewBox="0 0 40 40" style="enable-background:new 0 0 40 40;" xml:space="preserve">
<style type="text/css">
	.st0{fill:#D34A4A;stroke:#000000;stroke-width:0.5;stroke-miterlimit:10;}
	.st1{fill:#D34A4A;stroke:#000000;stroke-width:0.25;stroke-miterlimit:10;}
	.st2{fill:#665200;}
	.st3{fill:#878787;}
	.st4{fill:#545454;}
	.st5{fill:none;stroke:#545454;stroke-width:0.25;stroke-miterlimit:10;}
</style>
<g id="Layer_2">
	<circle class="st0" cx="20" cy="20" r="10"/>
	<path class="st1" d="M29.6,18.4c1.6,0.8,2.6,0.7,3.1,0.4c0.8-0.4,1.1-1.3,1.8-1.4c0.5,0,0.9,0.4,1.2,0.8c0.1,0.2,0.3,0.6,0.2,1
		c-0.1,0.6-0.6,1-0.8,1.2c-0.1,0.1-0.5,0.4-0.9,0.5s-0.7,0-1,0c-0.7,0-1.1,0.5-2,1.1c-0.4,0.3-1.1,0.7-2,1.1"/>
</g>
<g id="Layer_3">
	<g id="XMLID_4_">
		<g>
			<polygon class="st2" points="35.7,17.5 35.9,18.5 33.9,18.9 31.9,19.3 31.8,18.3 33.7,17.9 			"/>
		</g>
	</g>
	<g id="XMLID_3_">
		<g>
			<path class="st3" d="M32,9.1c0.4,0.3,0.8,0.6,1.2,0.9l1.5,7.7c-0.3,0.1-0.7,0.1-1,0.2C33.1,14.9,32.6,12,32,9.1z"/>
			<path class="st4" d="M32.7,18.1c-0.5-2.6-1-5.2-1.5-7.7c0.3-0.4,0.5-0.9,0.8-1.3c0.6,2.9,1.2,5.9,1.7,8.8
				C33.4,18,33.1,18,32.7,18.1z"/>
		</g>
		<g>
			<path class="st5" d="M32,9.1c-0.3,0.4-0.5,0.9-0.8,1.3c0.5,2.6,1,5.2,1.5,7.7c0.3-0.1,0.7-0.1,1-0.2s0.7-0.1,1-0.2L33.2,10
				C32.8,9.7,32.4,9.4,32,9.1c0.6,2.9,1.2,5.9,1.7,8.8"/>
		</g>
	</g>
</g>
</svg>
