<?xml version="1.0" encoding="utf-8"?>
<!-- Generator: Adobe Illustrator 21.1.0, SVG Export Plug-In . SVG Version: 6.00 Build 0)  -->
<svg version="1.1" id="Layer_1" xmlns="http://www.w3.org/2000/svg" xmlns:xlink="http://www.w3.org/1999/xlink" x="0px" y="0px"
	 viewBox="0 0 40 40" style="enable-background:new 0 0 40 40;" xml:space="preserve">
<style type="text/css">
	.st0{opacity:0.25;}
	.st1{fill:#D34A4A;stroke:#000000;stroke-width:0.25;stroke-miterlimit:10;}
	.st2{fill:#665200;}
	.st3{fill:#878787;stroke:#545454;stroke-miterlimit:10;}
	.st4{opacity:0.5;}
	.st5{fill:#D34A4A;stroke:#000000;stroke-width:0.5;stroke-miterlimit:10;}
</style>
<g class="st0">
	<path class="st1" d="M28.5,23.4c0.6,0,2.1-0.2,3.1-1.4c0.9-1,1.1-2.3,1.1-2.8c0-1.4-0.4-1.9,0-2.9c0.1-0.3,0.4-0.7,0.5-1.3
		c0.1-0.6,0.1-1.1,0-1.3c-0.1-0.3-0.2-1.1-0.7-1.4c-0.3-0.3-0.8-0.2-1.1-0.1c-0.6,0.3-1,0.6-1.4,1.2c-0.2,0.5,0,0.9,0.1,1.2
		c0.3,0.8,0.2,1.4,0.3,1.5c0.1,0.7,0.1,1.9-1,4.3"/>
	<path class="st1" d="M19.3,9.9c0.3-0.4,1.1-1.8,2.7-2.3c1.3-0.4,2.5,0,3,0.1c1.3,0.5,1.5,1.1,2.7,1.2c0.4,0,0.8-0.1,1.4,0
		c0.6,0.1,1.1,0.5,1.2,0.5c0.3,0.2,0.9,0.6,1.1,1.2c0.1,0.4-0.2,0.8-0.3,0.9c-0.4,0.4-0.9,0.8-1.7,0.8c-0.5,0-0.8-0.3-1.2-0.7
		c-0.6-0.5-1.1-0.8-1.2-0.9c-0.6-0.3-1.7-0.8-4.3-0.7"/>
	<path class="st2" d="M25,14L25,14c-0.1-0.3,0.1-0.7,0.4-0.8l9.2-2.8c0.3-0.1,0.7,0.1,0.8,0.4l0,0c0.1,0.3-0.1,0.7-0.4,0.8l-9.2,2.8
		C25.5,14.5,25.2,14.4,25,14z"/>
	<path class="st3" d="M34.4,15.6c0.2-0.4,1.5-2.2,0.9-4.6c-0.7-2.6-3-3.5-3.3-3.6c1.6-0.5,3.1-0.9,4.7-1.4c-0.2,0.8-0.4,2.6,0.2,4.6
		c0.6,1.9,1.6,3.1,2.3,3.7C37.5,14.8,36,15.2,34.4,15.6z"/>
</g>
<g class="st4">
	<path class="st1" d="M29.8,18.9c0.5-0.4,1.6-1.4,1.7-3c0.2-1.3-0.5-2.5-0.7-2.9c-0.8-1.1-1.5-1.3-1.7-2.3c-0.1-0.4-0.1-0.8-0.4-1.3
		c-0.2-0.5-0.6-1-0.8-1c-0.2-0.2-0.8-0.8-1.4-0.7c-0.4,0-0.8,0.4-0.9,0.5c-0.3,0.5-0.5,1.1-0.4,1.8c0.1,0.5,0.5,0.7,0.8,0.9
		c0.7,0.5,1,1,1.1,1c0.6,0.5,1.2,1.5,1.7,4.1"/>
	<path class="st1" d="M14.5,13.3c0-0.5-0.2-2.1,0.8-3.4c0.8-1.1,2-1.5,2.5-1.6c1.3-0.4,1.9,0.1,2.9-0.6c0.3-0.2,0.6-0.5,1.1-0.8
		c0.5-0.2,1.1-0.2,1.3-0.3c0.3,0,1.1,0,1.6,0.4c0.3,0.2,0.4,0.8,0.3,1c-0.1,0.6-0.3,1.2-0.9,1.6c-0.4,0.3-0.8,0.2-1.3,0.2
		c-0.8-0.1-1.4,0-1.5,0c-0.7,0.1-1.8,0.4-3.9,2"/>
	<path class="st2" d="M21.5,13.3L21.5,13.3c-0.2-0.2-0.3-0.6-0.1-0.9l5.9-7.6c0.2-0.2,0.6-0.3,0.9-0.1l0,0c0.2,0.2,0.3,0.6,0.1,0.9
		l-5.9,7.6C22.2,13.4,21.8,13.5,21.5,13.3z"/>
	<path class="st3" d="M30,9.1c-0.1-0.4-0.1-2.7-2-4.2c-2-1.7-4.5-1.1-4.8-1c1-1.3,2-2.6,3-3.9c0.4,0.8,1.2,2.3,2.8,3.6
		c1.6,1.2,3.1,1.6,4.1,1.7C32.1,6.6,31.2,7.9,30,9.1z"/>
</g>
<g>
	<path class="st1" d="M27.8,16.5c0.3-0.5,1-1.9,0.6-3.4c-0.3-1.3-1.3-2.2-1.7-2.5c-1.1-0.8-1.8-0.7-2.4-1.6
		c-0.2-0.3-0.4-0.7-0.8-1.1s-0.9-0.7-1.1-0.7c-0.3-0.1-1-0.5-1.6-0.2c-0.4,0.1-0.6,0.6-0.7,0.8C20,8.4,20,9,20.3,9.6
		c0.3,0.4,0.7,0.5,1.1,0.6c0.8,0.2,1.3,0.6,1.4,0.6c0.7,0.3,1.6,1,3,3.3"/>
	<path class="st1" d="M11.5,16.5c-0.2-0.5-0.9-1.9-0.4-3.5c0.4-1.3,1.4-2.1,1.8-2.4c1.1-0.8,1.8-0.6,2.5-1.5
		c0.2-0.3,0.4-0.7,0.8-1.1c0.4-0.4,1-0.6,1.1-0.7c0.3-0.1,1-0.4,1.6-0.2c0.4,0.1,0.6,0.6,0.6,0.8c0.1,0.6,0.1,1.2-0.3,1.8
		c-0.3,0.4-0.7,0.5-1.2,0.6c-0.8,0.2-1.3,0.5-1.4,0.5c-0.6,0.3-1.6,1-3,3.2"/>
	<path class="st2" d="M18.1,14.1L18.1,14.1c-0.3-0.1-0.5-0.5-0.4-0.8l2.9-9.2c0.1-0.3,0.5-0.5,0.8-0.4l0,0c0.3,0.1,0.5,0.5,0.4,0.8
		l-2.9,9.2C18.8,14,18.5,14.2,18.1,14.1z"/>
	<path class="st3" d="M24.7,7.3c-0.2-0.4-1-2.5-3.3-3.3c-2.5-0.9-4.6,0.5-4.9,0.7C17,3.1,17.5,1.6,18,0c0.6,0.6,1.9,1.8,3.9,2.4
		c1.9,0.6,3.5,0.4,4.4,0.2C25.8,4.2,25.3,5.7,24.7,7.3z"/>
</g>
<circle class="st5" cx="20" cy="20" r="10"/>
</svg>
