<?xml version="1.0" encoding="utf-8"?>
<!-- Generator: Adobe Illustrator 21.1.0, SVG Export Plug-In . SVG Version: 6.00 Build 0)  -->
<svg version="1.1" id="Layer_1" xmlns="http://www.w3.org/2000/svg" xmlns:xlink="http://www.w3.org/1999/xlink" x="0px" y="0px"
	 viewBox="0 0 40 40" style="enable-background:new 0 0 40 40;" xml:space="preserve">
<style type="text/css">
	.st0{fill:#D34A4A;stroke:#000000;stroke-width:0.25;stroke-miterlimit:10;}
	.st1{fill:#D34A4A;stroke:#000000;stroke-width:0.5;stroke-miterlimit:10;}
	.st2{fill:#F2F2F2;}
	.st3{fill:#7A5F2E;stroke:#000000;stroke-width:0.15;stroke-miterlimit:10;}
	.st4{fill:none;stroke:#000000;stroke-width:0.75;stroke-miterlimit:10;}
	.st5{fill:#9B9B9B;stroke:#000000;stroke-width:0.25;stroke-miterlimit:10;}
</style>
<path class="st0" d="M24.8,17.3c0.2-1.8-0.2-2.6-0.6-2.9c-0.7-0.6-1.6-0.5-1.9-1.1c-0.1-0.4,0.1-0.9,0.4-1.3
	c0.1-0.1,0.5-0.5,0.9-0.6c0.6-0.1,1.1,0.1,1.4,0.3c0.1,0,0.6,0.3,0.8,0.6s0.2,0.6,0.4,0.9c0.4,0.5,0.8,1.1,1.2,1.8
	c0.7,1.3,1,2.5,1.2,3.5"/>
<path class="st0" d="M12.9,17.9c0.6-1.5,1.2-2.7,1.5-3.4c0.9-1.5,1.4-2.2,1.5-3.4c0.1-0.5,0-1.1,0.2-1.7c0.2-0.7,0.5-1.4,0.8-1.5
	c0.2-0.3,0.8-1.2,1.4-1.3c0.4-0.1,0.9,0.3,1.1,0.4c0.3,0.6,0.8,1.3,0.6,2.2c-0.2,1.2-1.3,1.6-1.8,3c-0.4,0.8-0.8,2.6-0.1,5.4"/>
<circle class="st1" cx="20.3" cy="24.4" r="10"/>
<path class="st2" d="M21.6,11.5c-0.1-0.4,0.1-0.9,0.4-1l0,0c0.3-0.1,0.6,0.1,0.6,0.5l0.4,2.4c0,0.4,0,0.5-0.1,0.6
	C22.7,14.1,22.3,13.3,21.6,11.5z"/>
<path class="st2" d="M22.5,11.5c0.2-0.4,0.2-0.9-0.1-1.1l0,0c-0.2-0.2-0.6-0.1-0.8,0.3l-1.1,2.2c-0.1,0.3-0.2,0.5-0.1,0.6
	C20.6,13.6,21.3,13,22.5,11.5z"/>
<path class="st3" d="M33,12c-0.6-0.8-3.6-4.4-9.4-5C18,6.4,13.8,9,12.9,9.6c0-0.3,0-0.7,0-1c1.2-0.7,5.4-2.9,10.7-2.2
	c5.7,0.6,8.7,3.8,9.6,4.7C33.1,11.4,33.1,11.7,33,12z"/>
<path class="st4" d="M13.2,8.2c1.3,1,3.4,2.5,6.5,3.5c1.1,0.4,2.7,0.9,4.7,1c3.8,0.2,7-1,8.8-1.9"/>
<path class="st3" d="M22,12.2L22,12.2c0.2,0,0.4-0.2,0.4-0.4l1.2-9.8c0-0.2-0.1-0.5-0.3-0.5l0,0c-0.2,0-0.4,0.2-0.4,0.4l-1.2,9.8
	C21.7,11.9,21.8,12.1,22,12.2z"/>
<path class="st5" d="M24.6,2.7c-0.9,0-1.8-0.1-2.7-0.1l1.6-2.2L24.6,2.7z"/>
<path class="st2" d="M21.9,11.6c-0.2-0.3-0.1-0.8,0.1-1.1l0,0c0.3-0.2,0.6-0.2,0.8,0.2l1,2c0.1,0.3,0.1,0.5,0.1,0.6
	C23.7,13.5,23.1,12.9,21.9,11.6z"/>
<path class="st2" d="M22.4,11.5c0.3-0.3,0.3-0.8,0.2-1.1l0,0c-0.2-0.3-0.5-0.3-0.8,0l-1.5,1.8c-0.2,0.3-0.3,0.5-0.2,0.6
	C20.1,13,20.9,12.6,22.4,11.5z"/>
</svg>
