<?xml version="1.0" encoding="utf-8"?>
<!-- Generator: Adobe Illustrator 21.1.0, SVG Export Plug-In . SVG Version: 6.00 Build 0)  -->
<svg version="1.1" id="Layer_1" xmlns="http://www.w3.org/2000/svg" xmlns:xlink="http://www.w3.org/1999/xlink" x="0px" y="0px"
	 viewBox="0 0 40 40" style="enable-background:new 0 0 40 40;" xml:space="preserve">
<style type="text/css">
	.st0{fill:#D34A4A;stroke:#000000;stroke-width:0.25;stroke-miterlimit:10;}
	.st1{fill:#D34A4A;stroke:#000000;stroke-width:0.5;stroke-miterlimit:10;}
	.st2{fill:#F2F2F2;}
	.st3{fill:#7A5F2E;stroke:#000000;stroke-width:0.15;stroke-miterlimit:10;}
	.st4{fill:none;stroke:#000000;stroke-width:0.75;stroke-miterlimit:10;}
	.st5{fill:#9B9B9B;stroke:#000000;stroke-width:0.25;stroke-miterlimit:10;}
</style>
<path class="st0" d="M24.8,17.3c0.2-1.8-0.2-2.6-0.6-2.9c-0.7-0.6-1.6-0.5-1.9-1.1c-0.1-0.4,0.1-0.9,0.4-1.3
	c0.1-0.1,0.5-0.5,0.9-0.6c0.6-0.1,1.1,0.1,1.4,0.3c0.1,0,0.6,0.3,0.8,0.6s0.2,0.6,0.4,0.9c0.4,0.5,0.8,1.1,1.2,1.8
	c0.7,1.3,1,2.5,1.2,3.5"/>
<path class="st0" d="M12.9,18c0.6-1.5,1.2-2.7,1.5-3.4c0.9-1.5,1.4-2.2,1.5-3.4c0.1-0.5,0-1.1,0.2-1.7c0.2-0.7,0.5-1.4,0.8-1.5
	c0.2-0.3,0.8-1.2,1.4-1.3c0.4-0.1,0.9,0.3,1.1,0.4c0.3,0.6,0.8,1.3,0.6,2.2c-0.2,1.2-1.3,1.6-1.8,3c-0.4,0.8-0.8,2.6-0.1,5.4"/>
<circle class="st1" cx="20.3" cy="24.4" r="10"/>
<path class="st2" d="M21.7,11.7c-0.1-0.3,0.1-0.7,0.3-0.8l0,0c0.2-0.1,0.4,0.1,0.4,0.4l0.3,1.9c0,0.3,0,0.4-0.1,0.5
	C22.6,13.8,22.3,13.2,21.7,11.7z"/>
<path class="st2" d="M22.4,11.7c0.1-0.3,0.1-0.7-0.1-0.9l0,0c-0.1-0.2-0.4-0.1-0.6,0.2l-0.8,1.8c-0.1,0.2-0.1,0.4-0.1,0.5
	C21,13.4,21.5,12.9,22.4,11.7z"/>
<path class="st2" d="M22.6,11.6c0.1-0.3,0.4-0.6,0.7-0.5l0,0c0.2,0,0.3,0.3,0.2,0.6l-0.7,1.8c-0.2,0.3-0.2,0.3-0.3,0.4
	C22.2,13.8,22.3,13.1,22.6,11.6z"/>
<path class="st2" d="M23.2,12c0.3-0.2,0.5-0.5,0.4-0.8l0,0c0-0.2-0.3-0.3-0.6-0.1l-1.6,1.1c-0.2,0.2-0.3,0.3-0.3,0.4
	C21.1,12.7,21.8,12.5,23.2,12z"/>
<path class="st2" d="M21.2,11.8c-0.2-0.2-0.3-0.6-0.2-0.8l0,0c0.1-0.2,0.4-0.2,0.6,0.1l1.3,1.4c0.2,0.3,0.2,0.3,0.2,0.4
	C23,13.1,22.4,12.7,21.2,11.8z"/>
<path class="st2" d="M21.7,11.4c0-0.3-0.3-0.7-0.5-0.7l0,0c-0.2-0.1-0.4,0.2-0.4,0.5l0.2,1.9c0.1,0.2,0.1,0.4,0.2,0.4
	C21.4,13.6,21.6,12.9,21.7,11.4z"/>
<path class="st3" d="M33,12c-0.6-0.8-3.6-4.4-9.4-5C18,6.4,13.8,9,12.9,9.6c0-0.3,0-0.7,0-1c1.2-0.7,5.4-2.9,10.7-2.2
	c5.7,0.6,8.7,3.8,9.6,4.7C33.1,11.4,33.1,11.7,33,12z"/>
<path class="st4" d="M13.2,8.2c1.3,1,3.4,2.5,6.5,3.5c1.1,0.4,2.7,0.9,4.7,1c3.8,0.2,7-1,8.8-1.9"/>
<path class="st3" d="M22,12.3L22,12.3c0.1,0,0.3-0.2,0.3-0.3l0.9-7.8c0-0.2-0.1-0.4-0.2-0.4l0,0c-0.1,0-0.3,0.2-0.3,0.3l-0.9,7.8
	C21.8,12,21.9,12.2,22,12.3z"/>
<path class="st5" d="M24,4.7c-0.7,0-1.3-0.1-2-0.1l1.2-1.8L24,4.7z"/>
<path class="st2" d="M22,11.8c-0.1-0.2-0.1-0.6,0.1-0.9l0,0c0.2-0.2,0.4-0.2,0.6,0.2l0.7,1.6c0.1,0.2,0.1,0.4,0.1,0.5
	C23.3,13.3,22.8,12.8,22,11.8z"/>
<path class="st2" d="M22.3,11.7c0.2-0.2,0.2-0.6,0.1-0.9l0,0c-0.1-0.2-0.4-0.2-0.6,0l-1.1,1.4c-0.1,0.2-0.2,0.4-0.1,0.5
	C20.6,12.9,21.2,12.6,22.3,11.7z"/>
<path class="st3" d="M21.7,12.1L21.7,12.1c0.1-0.1,0.2-0.3,0.1-0.4l-3.4-7.1c-0.1-0.1-0.3-0.3-0.4-0.2l0,0c-0.1,0.1-0.2,0.3-0.1,0.4
	l3.4,7.1C21.4,12,21.6,12.1,21.7,12.1z"/>
<path class="st5" d="M19.3,4.7c-0.6,0.4-1.2,0.7-1.7,1l0.1-2.1L19.3,4.7z"/>
<path class="st2" d="M21.4,11.7c-0.3-0.1-0.4-0.5-0.4-0.8l0,0c0.1-0.3,0.3-0.4,0.6-0.2l1.5,0.9c0.2,0.2,0.3,0.3,0.3,0.4
	C23.4,12.3,22.7,12.1,21.4,11.7z"/>
<path class="st2" d="M21.7,11.4c0.1-0.3-0.2-0.7-0.3-0.8l0,0c-0.3-0.1-0.4,0-0.5,0.3l-0.2,1.8c0,0.3,0,0.5,0.1,0.5
	C20.9,13.4,21.2,12.8,21.7,11.4z"/>
<path class="st3" d="M22.6,12.3L22.6,12.3c0.1,0.1,0.3,0,0.4-0.1l4.8-6.2c0.1-0.1,0.1-0.4,0-0.5l0,0c-0.1-0.1-0.3,0-0.4,0.1
	l-4.8,6.2C22.5,11.9,22.5,12.1,22.6,12.3z"/>
<path class="st5" d="M28.1,6.8C27.6,6.5,27,6,26.4,5.7l1.9-0.9L28.1,6.8z"/>
<path class="st2" d="M22.7,11.8c0-0.3,0.3-0.6,0.5-0.7l0,0c0.3,0,0.5,0.1,0.4,0.4l-0.2,1.7c-0.1,0.2-0.1,0.4-0.2,0.4
	C23.1,13.8,23,13.2,22.7,11.8z"/>
<path class="st2" d="M23.1,11.9c0.3-0.1,0.5-0.4,0.6-0.7l0,0c0-0.3-0.2-0.4-0.5-0.3l-1.7,0.6c-0.3,0.1-0.4,0.2-0.4,0.3
	C21,12.1,21.7,12.1,23.1,11.9z"/>
</svg>
