<?xml version="1.0" encoding="utf-8"?>
<!-- Generator: Adobe Illustrator 21.1.0, SVG Export Plug-In . SVG Version: 6.00 Build 0)  -->
<svg version="1.1" id="Layer_1" xmlns="http://www.w3.org/2000/svg" xmlns:xlink="http://www.w3.org/1999/xlink" x="0px" y="0px"
	 viewBox="0 0 40 40" style="enable-background:new 0 0 40 40;" xml:space="preserve">
<style type="text/css">
	.st0{fill:#D34A4A;stroke:#000000;stroke-width:0.5;stroke-miterlimit:10;}
	.st1{fill:#D34A4A;stroke:#000000;stroke-width:0.25;stroke-miterlimit:10;}
	.st2{fill:#665200;}
	.st3{fill:#878787;}
	.st4{fill:#545454;}
	.st5{fill:none;stroke:#545454;stroke-width:0.25;stroke-miterlimit:10;}
	.st6{fill:url(#SVGID_1_);}
</style>
<g id="Layer_2">
	<circle class="st0" cx="20" cy="20" r="10"/>
	<path class="st1" d="M28.5,14.6c1.9,0.4,2.7,0.1,3.1-0.3c0.7-0.6,0.7-1.5,1.4-1.8c0.5-0.1,0.9,0.2,1.4,0.4c0.1,0.2,0.4,0.5,0.4,0.9
		c0,0.6-0.3,1.2-0.4,1.4c-0.1,0.1-0.2,0.4-0.8,0.6c-0.4,0.2-0.7,0.2-1,0.3c-0.7,0.2-1,0.7-1.6,1.6c-0.3,0.4-0.9,0.8-1.6,1.6"/>
</g>
<g id="Layer_3">
	<g id="XMLID_2_">
		<g>
			<polygon class="st2" points="34,12.1 34.5,13.2 32.7,14 30.8,14.8 30.4,13.9 32.2,13 			"/>
		</g>
	</g>
	<g id="XMLID_1_">
		<g>
			<path class="st3" d="M29.9,5.5l3.3,7.1c-0.3,0.1-0.6,0.3-0.9,0.4c-1.2-2.7-2.6-5.5-3.7-8.2C28.9,5.1,29.4,5.3,29.9,5.5z"/>
			<path class="st4" d="M28.4,4.9c1.2,2.7,2.6,5.5,3.7,8.2c-0.3,0.1-0.5,0.3-0.9,0.4c-1.1-2.3-2.2-4.7-3.3-7.1
				C28.1,5.9,28.4,5.4,28.4,4.9z"/>
		</g>
		<g>
			<path class="st5" d="M28.4,4.9c0,0.4-0.3,1.1-0.4,1.5c1.1,2.3,2.2,4.7,3.3,7.1c0.3-0.1,0.5-0.3,0.9-0.4c0.3-0.1,0.6-0.3,0.9-0.4
				l-3.3-7.1C29.4,5.3,28.9,5.1,28.4,4.9c1.2,2.7,2.6,5.5,3.7,8.2"/>
		</g>
	</g>
</g>
<linearGradient id="SVGID_1_" gradientUnits="userSpaceOnUse" x1="-679.8257" y1="-146.0482" x2="-678.2642" y2="-146.0482" gradientTransform="matrix(-0.9435 0.3311 -0.3311 -0.9435 -659.2033 91.7588)">
	<stop  offset="0" style="stop-color:#FFFFFF"/>
	<stop  offset="5.620724e-02" style="stop-color:#F9F9F9"/>
	<stop  offset="0.2389" style="stop-color:#EDEDED"/>
	<stop  offset="0.4794" style="stop-color:#E5E5E5"/>
	<stop  offset="1" style="stop-color:#E3E3E3"/>
</linearGradient>
<path class="st6" d="M30.6,4.7c-0.7-0.4-1.3-0.7-2-1.1c0.1,0.3,0.2,0.7,0.5,1c0.7,0.5,1.2,0.8,2,1.2"/>
</svg>
