<?xml version="1.0" encoding="utf-8"?>
<!-- Generator: Adobe Illustrator 21.1.0, SVG Export Plug-In . SVG Version: 6.00 Build 0)  -->
<svg version="1.1" id="Layer_1" xmlns="http://www.w3.org/2000/svg" xmlns:xlink="http://www.w3.org/1999/xlink" x="0px" y="0px"
	 viewBox="0 0 40 40" style="enable-background:new 0 0 40 40;" xml:space="preserve">
<style type="text/css">
	.st0{fill:#D34A4A;stroke:#000000;stroke-width:0.5;stroke-miterlimit:10;}
	.st1{fill:#665200;}
	.st2{fill:#878787;stroke:#545454;stroke-miterlimit:10;}
	.st3{fill:#D34A4A;stroke:#000000;stroke-width:0.25;stroke-miterlimit:10;}
</style>
<circle class="st0" cx="20" cy="20" r="10"/>
<path class="st1" d="M20.4,11.7L20.4,11.7c0.3,0,0.6,0.4,0.6,0.7l-0.7,9.6c0,0.3-0.4,0.6-0.7,0.6l0,0c-0.3,0-0.6-0.4-0.6-0.7
	l0.7-9.6C19.7,12,19.9,11.7,20.4,11.7z"/>
<path class="st2" d="M15.5,19.9c0.3,0.3,1.6,2.2,4,2.4c2.6,0.3,4.4-1.6,4.6-1.8c-0.1,1.7-0.3,3.2-0.4,4.9C23,25,21.5,24.1,19.4,24
	c-2-0.1-3.5,0.4-4.3,0.8C15.2,23.2,15.3,21.6,15.5,19.9z"/>
<path class="st3" d="M26.3,12.3c-0.2,0-0.5,0-0.8,0.1c-0.6,0.2-1,0.6-1.1,0.8c0,0.1-0.3,0.6-0.4,1.4c-0.1,0.5-0.2,0.9-0.5,1.2
	c-0.6,0.4-1.2,0.5-1.8,0.4c-0.2,0-0.7-0.2-0.8-0.6c-0.2-0.6,0-1.3,0.1-1.6c0.1-0.3,0.3-0.7,0.6-1.1c0.1-0.1,0.4-0.6,1.2-1.4
	c0.8-0.8,1.3-1.3,1.7-1.4c1-0.3,1.8,0.3,2,0.4c1.5,1,1.4,2.9,1.4,3.1"/>
<path class="st3" d="M12.4,13.4c0-0.1-0.2-2.1,1.2-3.1c0.1-0.1,1-0.7,2-0.5c0.4,0.1,0.9,0.5,1.7,1.3c0.8,0.7,1.2,1.2,1.2,1.3
	c0.3,0.4,0.5,0.8,0.7,1.1c0.1,0.3,0.4,1,0.2,1.6c-0.1,0.4-0.6,0.6-0.8,0.6c-0.6,0.1-1.2,0.1-1.8-0.3c-0.4-0.3-0.5-0.7-0.6-1.2
	c-0.2-0.8-0.5-1.3-0.5-1.4c-0.1-0.2-0.5-0.6-1.1-0.7C14.3,12,14,12,13.8,12"/>
</svg>
