<?xml version="1.0" encoding="utf-8"?>
<!-- Generator: Adobe Illustrator 21.1.0, SVG Export Plug-In . SVG Version: 6.00 Build 0)  -->
<svg version="1.1" id="Layer_1" xmlns="http://www.w3.org/2000/svg" xmlns:xlink="http://www.w3.org/1999/xlink" x="0px" y="0px"
	 viewBox="0 0 40 40" style="enable-background:new 0 0 40 40;" xml:space="preserve">
<style type="text/css">
	.st0{fill:#D34A4A;stroke:#000000;stroke-width:0.5;stroke-miterlimit:10;}
	.st1{fill:#665200;}
	.st2{fill:#878787;}
	.st3{fill:#545454;}
	.st4{fill:none;stroke:#545454;stroke-width:0.25;stroke-miterlimit:10;}
	.st5{fill:#D34A4A;stroke:#000000;stroke-width:0.25;stroke-miterlimit:10;}
</style>
<circle class="st0" cx="20" cy="20" r="10"/>
<g id="Layer_3">
	<g id="XMLID_4_">
		<g>
			<polygon class="st1" points="17.9,14.7 18,13.6 19.6,13.7 21.4,13.7 21.2,14.7 19.6,14.6 			"/>
		</g>
	</g>
	<g id="XMLID_3_">
		<g>
			<path class="st2" d="M19.4,23.5c-0.3-0.4-0.5-0.8-0.8-1.2l0.2-7.6c0.2,0,0.6,0.1,0.8,0C19.6,17.7,19.5,20.5,19.4,23.5z"/>
			<path class="st3" d="M20.5,14.7c-0.1,2.5-0.2,5.2-0.2,7.6c-0.2,0.3-0.6,0.8-0.8,1.1c0.1-2.9,0.1-5.9,0.2-8.8
				C19.9,14.6,20.1,14.7,20.5,14.7z"/>
		</g>
		<g>
			<path class="st4" d="M19.4,23.5c0.3-0.3,0.6-0.8,0.9-1.1c0.1-2.5,0.2-5.2,0.2-7.6c-0.2,0-0.6-0.1-0.8,0c-0.2,0-0.6-0.1-0.8,0
				l-0.2,7.6C18.8,22.7,19.1,23.1,19.4,23.5c0.1-2.9,0.1-5.9,0.2-8.8"/>
		</g>
	</g>
</g>
<path class="st5" d="M26.3,12.3c-0.2,0-0.5,0-0.8,0.1c-0.6,0.2-1,0.6-1.1,0.8c0,0.1-0.3,0.6-0.4,1.4c-0.1,0.5-0.2,0.9-0.5,1.2
	c-0.6,0.4-1.2,0.5-1.8,0.4c-0.2,0-0.7-0.2-0.8-0.6c-0.2-0.6,0-1.3,0.1-1.6c0.1-0.3,0.3-0.7,0.6-1.1c0.1-0.1,0.4-0.6,1.2-1.4
	c0.8-0.8,1.3-1.3,1.7-1.4c1-0.3,1.8,0.3,2,0.4c1.5,1,1.4,2.9,1.4,3.1"/>
<path class="st5" d="M12.4,13.4c0-0.1-0.2-2.1,1.2-3.1c0.1-0.1,1-0.7,2-0.5c0.4,0.1,0.9,0.5,1.7,1.3c0.8,0.7,1.2,1.2,1.2,1.3
	c0.3,0.4,0.5,0.8,0.7,1.1c0.1,0.3,0.4,1,0.2,1.6c-0.1,0.4-0.6,0.6-0.8,0.6c-0.6,0.1-1.2,0.1-1.8-0.3c-0.4-0.3-0.5-0.7-0.6-1.2
	c-0.2-0.8-0.5-1.3-0.5-1.4c-0.1-0.2-0.5-0.6-1.1-0.7C14.3,12,14,12,13.8,12"/>
</svg>
