<?xml version="1.0" encoding="utf-8"?>
<!-- Generator: Adobe Illustrator 21.1.0, SVG Export Plug-In . SVG Version: 6.00 Build 0)  -->
<svg version="1.1" id="Layer_1" xmlns="http://www.w3.org/2000/svg" xmlns:xlink="http://www.w3.org/1999/xlink" x="0px" y="0px"
	 viewBox="0 0 40 40" style="enable-background:new 0 0 40 40;" xml:space="preserve">
<style type="text/css">
	.st0{opacity:0.25;}
	.st1{fill:#665200;}
	.st2{fill:#878787;}
	.st3{fill:#545454;}
	.st4{fill:none;stroke:#545454;stroke-width:0.25;stroke-miterlimit:10;}
	.st5{opacity:0.25;fill:#D34A4A;stroke:#000000;stroke-width:0.25;stroke-miterlimit:10;}
	.st6{opacity:0.5;}
	.st7{opacity:0.5;fill:#D34A4A;stroke:#000000;stroke-width:0.25;stroke-miterlimit:10;}
	.st8{fill:#D34A4A;stroke:#000000;stroke-width:0.25;stroke-miterlimit:10;}
	.st9{fill:#D34A4A;stroke:#000000;stroke-width:0.5;stroke-miterlimit:10;}
</style>
<g id="Layer_3_2_" class="st0">
	<g id="XMLID_6_">
		<g>
			<polygon class="st1" points="26.8,11.9 26.2,12.9 24.5,11.9 22.6,10.8 23.3,10 24.9,11 			"/>
		</g>
	</g>
	<g id="XMLID_5_">
		<g>
			<path class="st2" d="M29.3,3.1c0.1,0.5,0.2,1,0.4,1.5l-3.9,6.8c-0.3-0.1-0.6-0.4-0.9-0.4C26.4,8.3,27.9,5.8,29.3,3.1z"/>
			<path class="st3" d="M24.1,10.4c1.3-2.3,2.7-4.6,3.9-6.8c0.4-0.1,1-0.4,1.4-0.5c-1.4,2.6-2.9,5.3-4.4,7.9
				C24.7,10.8,24.4,10.6,24.1,10.4z"/>
		</g>
		<g>
			<path class="st4" d="M29.3,3.1c-0.5,0.1-1,0.4-1.5,0.5c-1.3,2.3-2.7,4.6-3.9,6.8c0.3,0.1,0.6,0.4,0.9,0.4
				c0.3,0.1,0.6,0.4,0.9,0.4l3.9-6.8C29.6,4.2,29.5,3.7,29.3,3.1c-1.4,2.6-2.9,5.3-4.4,7.9"/>
		</g>
	</g>
</g>
<path class="st5" d="M29.9,21c0.5-0.3,1.7-1.2,2.1-2.8c0.3-1.3-0.2-2.5-0.4-3c-0.6-1.2-1.3-1.4-1.4-2.5c-0.1-0.5,0-0.9-0.2-1.4
	c-0.2-0.5-0.5-1-0.7-1.1C29.1,10,28.7,9.3,28,9.3c-0.4-0.1-0.8,0.3-1,0.4c-0.4,0.5-0.6,1-0.6,1.7c0.1,0.4,0.4,0.8,0.8,1.1
	c0.6,0.5,0.9,1.1,1,1.2c0.5,0.6,1,1.6,1.2,4.3"/>
<path class="st5" d="M13.8,12.6c0-0.5,0.1-2.1,1.2-3.3c0.9-1,2.2-1.2,2.7-1.3c1.3-0.1,1.9,0.3,2.9-0.2c0.3-0.2,0.7-0.4,1.2-0.6
	C22.4,6.9,23,7,23.1,7c0.3,0,1.1,0.1,1.5,0.5c0.3,0.3,0.3,0.8,0.2,1c-0.2,0.6-0.5,1.1-1.1,1.5c-0.4,0.2-0.9,0.1-1.3,0
	c-0.8-0.2-1.4-0.1-1.5-0.2c-0.7-0.1-1.9,0-4.2,1.4"/>
<g id="Layer_3_1_" class="st6">
	<g id="XMLID_2_">
		<g>
			<polygon class="st1" points="24.6,10 24.2,11 22.3,10.4 20.3,9.8 20.7,8.9 22.6,9.5 			"/>
		</g>
	</g>
	<g id="XMLID_1_">
		<g>
			<path class="st2" d="M25.1,0.8c0.2,0.5,0.4,0.9,0.7,1.4l-2.3,7.5c-0.3-0.1-0.7-0.3-1-0.2C23.4,6.5,24.3,3.7,25.1,0.8z"/>
			<path class="st3" d="M21.6,9.1c0.7-2.5,1.6-5.1,2.3-7.5c0.4-0.2,0.9-0.6,1.2-0.8c-0.8,2.9-1.6,5.8-2.6,8.6
				C22.3,9.4,22,9.2,21.6,9.1z"/>
		</g>
		<g>
			<path class="st4" d="M25.1,0.8c-0.5,0.2-0.9,0.6-1.3,0.8c-0.7,2.5-1.6,5.1-2.3,7.5c0.3,0.1,0.7,0.3,1,0.2c0.3,0.1,0.7,0.3,1,0.2
				l2.3-7.5C25.6,1.8,25.4,1.3,25.1,0.8c-0.8,2.9-1.6,5.8-2.6,8.6"/>
		</g>
	</g>
</g>
<path class="st7" d="M29.7,18.1c0.4-0.4,1.4-1.6,1.4-3.2c0-1.3-0.7-2.4-1-2.8c-0.9-1-1.6-1.1-1.9-2.1c-0.2-0.5-0.2-0.9-0.5-1.4
	c-0.3-0.5-0.7-0.9-0.9-0.9c-0.3-0.2-0.9-0.7-1.5-0.6c-0.4,0-0.7,0.4-0.9,0.6c-0.2,0.6-0.4,1.1-0.2,1.8c0.2,0.4,0.6,0.7,1,0.9
	c0.7,0.4,1.1,0.9,1.2,0.9c0.6,0.5,1.3,1.4,2.1,3.9"/>
<path class="st7" d="M12.1,13.5c-0.1-0.5-0.4-2.1,0.5-3.5c0.7-1.2,1.9-1.7,2.3-1.9c1.2-0.4,1.9-0.1,2.8-0.9c0.3-0.2,0.6-0.6,1-0.9
	C19.2,6,19.8,6,19.9,5.9c0.3,0,1.1-0.1,1.6,0.2C21.9,6.3,22,6.8,21.9,7c0,0.6-0.2,1.2-0.7,1.7C20.8,9,20.4,9,19.9,9
	c-0.8,0-1.4,0.2-1.5,0.1c-0.7,0-1.9,0.5-3.8,2.3"/>
<g id="Layer_3">
	<g id="XMLID_4_">
		<g>
			<polygon class="st1" points="22.4,9 22.3,10.1 20.3,10 18.2,9.9 18.4,8.9 20.3,9 			"/>
		</g>
	</g>
	<g id="XMLID_3_">
		<g>
			<path class="st2" d="M20.7,0c0.3,0.4,0.6,0.8,1,1.2L21.3,9c-0.3,0-0.7-0.1-1,0C20.4,5.9,20.6,3,20.7,0z"/>
			<path class="st3" d="M19.3,8.9c0.1-2.6,0.3-5.3,0.4-7.8c0.3-0.3,0.7-0.8,1-1.1c-0.1,3-0.2,6-0.4,9C20,9,19.7,8.9,19.3,8.9z"/>
		</g>
		<g>
			<path class="st4" d="M20.7,0c-0.4,0.3-0.7,0.8-1.1,1.1c-0.1,2.6-0.3,5.3-0.4,7.8c0.3,0,0.7,0.1,1,0c0.3,0,0.7,0.1,1,0l0.4-7.8
				C21.4,0.8,21.1,0.4,20.7,0c-0.1,3-0.2,6-0.4,9"/>
		</g>
	</g>
</g>
<g id="Layer_2">
	<path class="st8" d="M29.3,15.7c0.3-0.5,1-1.9,0.6-3.4c-0.3-1.3-1.3-2.2-1.7-2.5c-1.1-0.8-1.8-0.7-2.4-1.6C25.5,7.8,25.4,7.4,25,7
		s-0.9-0.7-1.1-0.7c-0.3-0.1-1-0.5-1.6-0.2c-0.4,0.1-0.6,0.6-0.7,0.8c-0.1,0.6-0.1,1.2,0.2,1.8C22.1,9,22.5,9.2,23,9.3
		c0.8,0.2,1.3,0.6,1.4,0.6c0.7,0.3,1.6,1,3,3.3"/>
	<path class="st8" d="M11.1,15.4c-0.2-0.5-0.9-1.9-0.4-3.5c0.4-1.3,1.4-2.1,1.8-2.4C13.6,8.8,14.3,8.9,15,8c0.2-0.3,0.4-0.7,0.8-1.1
		s1-0.6,1.1-0.7c0.3-0.1,1-0.4,1.6-0.2c0.4,0.1,0.6,0.6,0.6,0.8c0.1,0.6,0.1,1.2-0.3,1.8c-0.3,0.4-0.7,0.5-1.2,0.6
		c-0.8,0.2-1.3,0.5-1.4,0.5c-0.7,0.2-1.7,0.9-3.1,3.1"/>
	<circle class="st9" cx="20" cy="20" r="10"/>
</g>
</svg>
