<?xml version="1.0" encoding="utf-8"?>
<!-- Generator: Adobe Illustrator 21.1.0, SVG Export Plug-In . SVG Version: 6.00 Build 0)  -->
<svg version="1.1" id="Layer_1" xmlns="http://www.w3.org/2000/svg" xmlns:xlink="http://www.w3.org/1999/xlink" x="0px" y="0px"
	 viewBox="0 0 100 100" style="enable-background:new 0 0 100 100;" xml:space="preserve">
<style type="text/css">
	.st0{fill:#A13EAF;}
	.st1{opacity:0.5;fill:url(#SVGID_1_);stroke:#000000;stroke-miterlimit:10;}
</style>
<g>
	<rect x="2.5" y="2.5" class="st0" width="95" height="95"/>
	<path d="M95,5v90H5V5H95 M100,0H0v100h100V0L100,0z"/>
</g>
<radialGradient id="SVGID_1_" cx="50" cy="50" r="31.5426" gradientUnits="userSpaceOnUse">
	<stop  offset="0" style="stop-color:#6ADBFF"/>
	<stop  offset="1" style="stop-color:#3F91FF"/>
</radialGradient>
<circle class="st1" cx="50" cy="50" r="31.5"/>
<path d="M56.8,18.9c-4-0.1-8-0.1-12-0.2l6.1-5.9L56.8,18.9z"/>
<path d="M44,81.1c4,0.1,8,0.1,12,0.2l-6.1,5.9L44,81.1z"/>
<path d="M81.1,56.3c0-4,0.1-8,0.1-12l6,6.1L81.1,56.3z"/>
<path d="M18.9,43.7c0,4-0.1,8-0.1,12l-6-6.1L18.9,43.7z"/>
<path d="M77,33.3c-2.7-3-5.4-5.9-8.2-8.9l8.5,0.3L77,33.3z"/>
<path d="M23.1,66.8c2.7,3,5.4,5.9,8.2,8.9l-8.5-0.3L23.1,66.8z"/>
<path d="M66.7,76.6c2.9-2.7,5.9-5.5,8.8-8.2l-0.3,8.5L66.7,76.6z"/>
<path d="M32.9,22.9c-2.9,2.7-5.9,5.5-8.8,8.2l0.3-8.5L32.9,22.9z"/>
<path d="M69.1,24.5c-3.6-1.7-7.3-3.4-10.9-5.2l8-2.9L69.1,24.5z"/>
<path d="M31.6,75.8c3.6,1.7,7.3,3.4,10.9,5.2l-8,2.9L31.6,75.8z"/>
<path d="M75.8,68.6c1.7-3.6,3.4-7.3,5.1-10.9l2.9,8L75.8,68.6z"/>
<path d="M24.2,31.4c-1.7,3.6-3.4,7.3-5.1,10.9l-2.9-8L24.2,31.4z"/>
<path d="M81.5,45.9c-1.3-3.8-2.5-7.6-3.8-11.4l7.6,3.8L81.5,45.9z"/>
<path d="M18.5,54.2c1.3,3.8,2.5,7.6,3.8,11.4l-7.6-3.8L18.5,54.2z"/>
<path d="M54.2,81.2c3.8-1.3,7.6-2.5,11.4-3.8L61.8,85L54.2,81.2z"/>
<path d="M45.6,18.2c-3.8,1.3-7.6,2.5-11.4,3.8l3.8-7.6L45.6,18.2z"/>
</svg>
