<?xml version="1.0" encoding="utf-8"?>
<!-- Generator: Adobe Illustrator 21.1.0, SVG Export Plug-In . SVG Version: 6.00 Build 0)  -->
<svg version="1.1" id="Layer_1" xmlns="http://www.w3.org/2000/svg" xmlns:xlink="http://www.w3.org/1999/xlink" x="0px" y="0px"
	 viewBox="0 0 40 40" style="enable-background:new 0 0 40 40;" xml:space="preserve">
<style type="text/css">
	.st0{opacity:0.5;fill:url(#SVGID_1_);stroke:#000000;stroke-miterlimit:10;}
</style>
<radialGradient id="SVGID_1_" cx="47.9188" cy="-8.6959" r="31.5426" gradientTransform="matrix(0.5356 0 0 0.5307 -5.6671 24.6151)" gradientUnits="userSpaceOnUse">
	<stop  offset="0" style="stop-color:#6ADBFF"/>
	<stop  offset="1" style="stop-color:#3F91FF"/>
</radialGradient>
<ellipse class="st0" cx="20" cy="20" rx="16.9" ry="16.7"/>
<path d="M23.7,3.5c-2.2,0-4.3-0.1-6.5-0.1l3.3-3.1L23.7,3.5z"/>
<path d="M16.8,36.5c2.2,0,4.3,0.1,6.5,0.1l-3.3,3.1L16.8,36.5z"/>
<path d="M36.7,23.3c0-2.1,0-4.3,0.1-6.4l3.2,3.2L36.7,23.3z"/>
<path d="M3.3,16.7c0,2.1,0,4.3-0.1,6.4l-3.2-3.2L3.3,16.7z"/>
<path d="M34.5,11.1C33,9.5,31.6,8,30.1,6.4l4.6,0.2L34.5,11.1z"/>
<path d="M5.6,28.9c1.5,1.6,2.9,3.1,4.4,4.7l-4.6-0.2L5.6,28.9z"/>
<path d="M28.9,34.1c1.6-1.5,3.1-2.9,4.7-4.4l-0.2,4.5L28.9,34.1z"/>
<path d="M10.8,5.6C9.2,7,7.7,8.5,6.1,10l0.2-4.5L10.8,5.6z"/>
<path d="M30.2,6.5c-1.9-0.9-3.9-1.8-5.8-2.7l4.3-1.5L30.2,6.5z"/>
<path d="M10.2,33.7c1.9,0.9,3.9,1.8,5.8,2.7L11.7,38L10.2,33.7z"/>
<path d="M33.8,29.9c0.9-1.9,1.8-3.9,2.7-5.8l1.6,4.3L33.8,29.9z"/>
<path d="M6.2,10.1c-0.9,1.9-1.8,3.9-2.7,5.8l-1.6-4.3L6.2,10.1z"/>
<path d="M36.9,17.8c-0.7-2-1.3-4-2-6.1l4.1,2L36.9,17.8z"/>
<path d="M3.1,22.2c0.7,2,1.3,4,2,6.1l-4.1-2L3.1,22.2z"/>
<path d="M22.2,36.5c2-0.7,4.1-1.4,6.1-2l-2,4L22.2,36.5z"/>
<path d="M17.7,3.1c-2,0.7-4.1,1.4-6.1,2l2-4L17.7,3.1z"/>
</svg>
