<?xml version="1.0" encoding="utf-8"?>
<!-- Generator: Adobe Illustrator 21.1.0, SVG Export Plug-In . SVG Version: 6.00 Build 0)  -->
<svg version="1.1" id="Layer_1" xmlns="http://www.w3.org/2000/svg" xmlns:xlink="http://www.w3.org/1999/xlink" x="0px" y="0px"
	 viewBox="0 0 100 100" style="enable-background:new 0 0 100 100;" xml:space="preserve">
<style type="text/css">
	.st0{fill:#3E992B;stroke:#438E2B;stroke-width:0.5;stroke-miterlimit:10;}
	.st1{fill:#727272;stroke:#4C4C4C;stroke-width:0.5;stroke-miterlimit:10;}
	.st2{fill:#A0A0A0;stroke:#848484;stroke-width:0.5;stroke-miterlimit:10;}
</style>
<path class="st0" d="M48.8,12.2c-4.2-1.1-6.2-1.1-8-0.8c-5.4,1-8.9,5.1-10.3,7c-1.2,0.3-9.1,2.6-12.4,10.7c-1.6,3.8-1.5,7.3-1.4,9.3
	c0.3,3.2,1.2,5.5,0,8c-0.7,1.4-1.3,1.5-2.6,3c-3.4,4.1-3.5,9.3-3.5,9.6c0,4.8,2.4,8.2,3.5,9.6c1.2,1.7,2.5,2.9,3.5,3.6
	c0.3,1.5,0.7,3.1,1.2,4.8c0.9,3.1,1.9,5.7,3,8c4,1.9,10,4.1,17.5,4.2c3.8,0.1,9.1,0.1,15.1-2.9c3.4-1.7,5.9-3.8,7.5-5.3
	c1.5,0.7,4.2,1.7,7.5,1.3c5.9-0.7,9.4-5.5,11.3-8c3.8-5.1,4.7-10.5,5-13.3c1.1-2.6,2.8-7.8,1.3-13.3c-0.4-1.3-1.1-2.7-2.5-5.3
	c-1.6-3-3.1-5.9-5.5-8.6c-2.2-2.4-3.1-2.6-5.8-4.8c-2.2-1.9-5.2-4.9-8.1-9.6C58.5,15.2,52.7,13.2,48.8,12.2z"/>
<path class="st1" d="M47.9,8c-2.6,0.4-5.2,0.7-7.9,1.1c-3.8,2.5-7.5,4.9-11.3,7.4c-1.3,0.3-9.9,2.8-13.6,11.4
	c-1.7,4-1.7,7.7-1.5,9.8c0.3,2,0.5,5,0,8.5c-0.2,1.3-0.4,2.2-0.6,2.7c-0.7,2.5-1.8,4.4-2.6,5.6c-0.3,7-0.7,14-1,21
	c3.2,3.9,6.4,7.8,9.6,11.7c6.5,1.4,12.9,2.9,19.4,4.3c5.7-0.3,11.3-0.7,17-1c2.5-2.5,4.9-5,7.4-7.5c2.7,0.5,5.5,0.9,8.2,1.4
	c4.1-2.8,8.2-5.7,12.3-8.5c1.8-4.7,3.7-9.4,5.5-14.1c0.5-4.7,0.9-9.4,1.4-14.1c-0.8-2.6-1.9-4.5-2.7-5.7c-2.9-4-5.8-4.8-8.7-9.6
	c-0.7-1.1-1.3-2.4-1.4-2.8c-1.1-2.4-1.8-4.5-2.2-6c-4.1-2.4-8.2-4.7-12.3-7.1C57.9,13.7,52.9,10.9,47.9,8z"/>
<path class="st2" d="M49.5,13.7c-2.5-0.2-5-0.5-7.4-0.7c-3.1,1.9-6.3,4.1-9.7,6.7c-4.5,3.5-8.4,6.9-11.6,10.2
	c-0.4,3-0.8,5.9-1.3,8.9c0,2.5,0,5.1,0,7.6c-0.8,1-1.6,1.9-2.4,2.9c-1.1,3.1-2.2,6.1-3.2,9.2c1.1,3.1,2.2,6.1,3.2,9.2
	c1.1,1.2,2.1,2.4,3.2,3.7c0.4,1.4,0.8,2.9,1.2,4.3c0.9,2.5,1.9,5.1,2.8,7.6c5.5,1.3,10.9,2.7,16.4,4c4.7-0.9,9.4-1.8,14.1-2.7
	c2.3-1.7,4.7-3.4,7-5.1c2.3,0.4,4.7,0.8,7,1.3c3.5-2.5,7-5.1,10.6-7.6c1.6-4.2,3.1-8.5,4.7-12.7c0.4-4.2,0.8-8.5,1.2-12.7
	c-0.8-1.7-1.6-3.4-2.3-5.1c-2.5-2.5-4.9-5-7.4-7.6c-0.9-1.7-2-3.4-3.2-5.2c-2.5-3.7-5.1-6.7-7.6-9.2C59.6,18.3,54.6,16,49.5,13.7z"
	/>
</svg>
