<?xml version="1.0" encoding="utf-8"?>
<!-- Generator: Adobe Illustrator 21.1.0, SVG Export Plug-In . SVG Version: 6.00 Build 0)  -->
<svg version="1.1" id="Layer_1" xmlns="http://www.w3.org/2000/svg" xmlns:xlink="http://www.w3.org/1999/xlink" x="0px" y="0px"
	 viewBox="0 0 100 100" style="enable-background:new 0 0 100 100;" xml:space="preserve">
<style type="text/css">
	.st0{fill:#383838;stroke:#424242;stroke-miterlimit:10;}
	.st1{fill:#F2F2F2;stroke:#9B9B9B;stroke-miterlimit:10;}
</style>
<path class="st0" d="M62.9,12.9c1,3.4-0.6,6.4-1,7.3c-1.8,3.5-5.5,6-9.6,6.4c-4.6,0.5-9.4-1.8-11.7-5.8c-1.6-2.7-2.7-7.2-0.6-10.3
	c0.9-1.4,2.6-2.2,6-3.9c2.5-1.2,3.8-1.9,5.6-1.9c2.2,0,3.8,1,5.4,1.9C59.1,7.9,61.9,9.6,62.9,12.9z"/>
<path class="st1" d="M36.3,20.2c-3.9,0.4-6.3,1-8.5,2.9c-3.4,3.1-3.6,7.6-3.6,9.3c0,0-9.3,5.8-3.1,17.5c0,0-7.7,11.7,0,20.4
	c0,0-4.6,11.7,6.2,17.5c0,0,3.1,11.7,17,8.8c0,0,13.9,5.8,21.7-2.9c0,0,10.8-1.5,9.3-13.1c0,0,9.3-7.3,3.1-19c0,0,9.3-13.1-1.5-23.4
	c0.5-1.8,2.3-8.3-1.5-13.1c-2.3-2.9-6.2-3.7-13.5-5C51.6,18.3,45,19.2,36.3,20.2z"/>
<path class="st0" d="M38.1,14c-1.2-2.2-3.6-3.1-5.1-2.4c-1,0.4-1.8,1.6-1.8,2.7c0,1.2,0.8,2.1,1.8,3c0.6,0.6,1.7,1.5,3.3,2.2l28,1.2
	c1.8-0.1,3.1-0.7,3.8-1.1c1.2-0.7,2.3-1.2,2.6-2.4c0.3-1.2-0.3-2.4-1-3.1c-1.5-1.5-4.6-1.3-7.6,0.6"/>
</svg>
