<?xml version="1.0" encoding="utf-8"?>
<!-- Generator: Adobe Illustrator 21.1.0, SVG Export Plug-In . SVG Version: 6.00 Build 0)  -->
<svg version="1.1" xmlns="http://www.w3.org/2000/svg" xmlns:xlink="http://www.w3.org/1999/xlink" x="0px" y="0px"
	 viewBox="0 0 100 100" style="enable-background:new 0 0 100 100;" xml:space="preserve">
<style type="text/css">
	.st0{fill:#4F829E;}
	.st1{opacity:0.3;}
	.st2{fill:#665200;}
	.st3{fill:#878787;}
	.st4{fill:#545454;}
	.st5{fill:none;stroke:#545454;stroke-width:0.25;stroke-miterlimit:10;}
	.st6{opacity:0.4;}
	.st7{opacity:0.5;}
	.st8{opacity:0.6;}
	.st9{opacity:0.75;}
</style>
<g id="Layer_1">
	<g id="Layer_1_1_">
		<g>
			<rect x="2.5" y="2.5" class="st0" width="95" height="95"/>
			<path d="M95,5v90H5V5H95 M100,0H0v100h100V0L100,0z"/>
		</g>
	</g>
</g>
<g id="Layer_2">
	<g id="Layer_3_5_" class="st1">
		<g id="XMLID_12_">
			<g>
				<polygon class="st2" points="49.6,73.9 45.1,74.6 43.7,65.5 42.4,56.4 46.8,56.2 48.2,64.8 				"/>
			</g>
		</g>
		<g id="XMLID_11_">
			<g>
				<path class="st3" d="M87.8,58.9c-1.4,1.7-2.8,3.5-4.3,5.2l-34.6,5.2c-0.4-1.4-0.3-3.2-0.7-4.5C61.7,62.7,74.7,61,87.8,58.9z"/>
				<path class="st4" d="M47.5,60.3c11.7-1.7,23.4-3.4,34.6-5.2c1.7,1.4,3.9,2.4,5.6,3.9c-13,2.1-26.5,4.2-39.5,5.9
					C47.8,63.4,47.9,62.1,47.5,60.3z"/>
			</g>
			<g>
				<path class="st5" d="M87.8,58.9c-1.7-1.4-3.9-2.4-5.6-3.9c-11.7,1.7-23.4,3.4-34.6,5.2c0.4,1.4,0.3,3.2,0.7,4.5
					c0.4,1.4,0.3,3.2,0.7,4.5l34.6-5.2C84.9,62.4,86.3,60.7,87.8,58.9c-13,2.1-26.5,4.2-39.5,5.9"/>
			</g>
		</g>
	</g>
	<g id="Layer_3_4_" class="st6">
		<g id="XMLID_10_">
			<g>
				<polygon class="st2" points="58.6,70.2 55.8,73.8 48.6,68.1 41.4,62.4 44.5,59.2 51.4,64.6 				"/>
			</g>
		</g>
		<g id="XMLID_9_">
			<g>
				<path class="st3" d="M76.2,33.2c0.2,2.2,0.3,4.5,0.5,6.7L55,67.4c-1.2-0.7-2.4-2.1-3.6-2.8C59.8,53.8,68.1,43.7,76.2,33.2z"/>
				<path class="st4" d="M47.8,61.7c7.3-9.3,14.7-18.5,21.6-27.5c2.2-0.1,4.5-0.9,6.7-1c-8,10.5-16.4,21.2-24.8,31.3
					C50.2,63.8,49.3,62.8,47.8,61.7z"/>
			</g>
			<g>
				<path class="st5" d="M76.2,33.2c-2.2,0.1-4.5,0.9-6.7,1c-7.3,9.3-14.7,18.5-21.6,27.5c1.2,0.7,2.4,2.1,3.6,2.8
					c1.2,0.7,2.4,2.1,3.6,2.8l21.6-27.5C76.5,37.7,76.3,35.4,76.2,33.2c-8,10.5-16.4,21.2-24.8,31.3"/>
			</g>
		</g>
	</g>
	<g id="Layer_3_3_" class="st7">
		<g id="XMLID_8_">
			<g>
				<polygon class="st2" points="58,62.5 57.7,67 48.5,66.4 39.4,65.7 40.1,61.3 48.8,61.8 				"/>
			</g>
		</g>
		<g id="XMLID_7_">
			<g>
				<path class="st3" d="M51.7,22c1.4,1.8,2.8,3.5,4.2,5.3l-2.4,34.9c-1.4,0.1-3.2-0.4-4.6-0.3C49.7,48.2,50.9,35.1,51.7,22z"/>
				<path class="st4" d="M44.2,61.5C45.1,49.7,46,38,46.7,26.6c1.8-1.4,3.2-3.3,5-4.6c-0.8,13.2-1.7,26.8-2.9,39.9
					C47.4,61.9,46.1,61.5,44.2,61.5z"/>
			</g>
			<g>
				<path class="st5" d="M51.7,22c-1.8,1.4-3.2,3.3-5,4.6c-0.9,11.8-1.7,23.5-2.4,34.9c1.4-0.1,3.2,0.4,4.6,0.3s3.2,0.4,4.6,0.3
					l2.4-34.9C54.5,25.5,53.1,23.7,51.7,22c-0.8,13.2-1.7,26.8-2.9,39.9"/>
			</g>
		</g>
	</g>
	<g id="Layer_3_2_" class="st8">
		<g id="XMLID_6_">
			<g>
				<polygon class="st2" points="55.2,55.7 57.4,59.6 49.4,64.1 41.4,68.7 39.6,64.6 47.2,60.2 				"/>
			</g>
		</g>
		<g id="XMLID_5_">
			<g>
				<path class="st3" d="M27.6,25.4c2.1,0.7,4.3,1.4,6.4,2.1l17.2,30.4c-1.1,0.8-2.9,1.4-4,2.3C40.4,48.3,34.2,36.8,27.6,25.4z"/>
				<path class="st4" d="M43.2,62.5C37.4,52.2,31.6,41.9,26,32c0.7-2.1,0.9-4.5,1.6-6.6C34.2,36.8,41,48.6,47.2,60.2
					C46,61,44.7,61.5,43.2,62.5z"/>
			</g>
			<g>
				<path class="st5" d="M27.6,25.4c-0.7,2.1-0.9,4.5-1.6,6.6c5.8,10.3,11.6,20.6,17.2,30.4c1.1-0.8,2.9-1.4,4-2.3
					c1.1-0.8,2.9-1.4,4-2.3L34,27.5C31.8,26.8,29.7,26.1,27.6,25.4C34.2,36.8,41,48.6,47.2,60.2"/>
			</g>
		</g>
	</g>
	<g id="Layer_3_1_" class="st9">
		<g id="XMLID_2_">
			<g>
				<polygon class="st2" points="49.7,53.5 53.4,56.1 48.1,63.7 42.8,71.2 39.4,68.3 44.4,61.1 				"/>
			</g>
		</g>
		<g id="XMLID_1_">
			<g>
				<path class="st3" d="M11.7,38.1c2.2-0.3,4.5-0.6,6.7-0.9L47,57.3c-0.7,1.3-2,2.5-2.6,3.8C33.2,53.3,22.6,45.5,11.7,38.1z"/>
				<path class="st4" d="M41.7,64.8C32.1,58,22.4,51.3,13.1,44.8c-0.3-2.2-1.2-4.5-1.4-6.7c10.9,7.4,22.1,15.2,32.7,23
					C43.7,62.3,42.7,63.3,41.7,64.8z"/>
			</g>
			<g>
				<path class="st5" d="M11.7,38.1c0.3,2.2,1.2,4.5,1.4,6.7c9.7,6.8,19.3,13.6,28.7,20.1c0.7-1.3,2-2.5,2.6-3.8
					c0.7-1.3,2-2.5,2.6-3.8L18.4,37.2C16.1,37.5,13.9,37.8,11.7,38.1c10.9,7.4,22.1,15.2,32.7,23"/>
			</g>
		</g>
	</g>
	<g id="Layer_3">
		<g id="XMLID_4_">
			<g>
				<polygon class="st2" points="47.6,55.1 51.9,56.6 48.6,65.2 45.4,73.9 41.4,71.9 44.4,63.7 				"/>
			</g>
		</g>
		<g id="XMLID_3_">
			<g>
				<path class="st3" d="M7,49.5c2.1-0.8,4.2-1.7,6.3-2.5L46,59.4c-0.3,1.4-1.3,2.9-1.6,4.3C31.6,58.9,19.4,54,7,49.5z"/>
				<path class="st4" d="M42.8,68c-11-4.2-22.1-8.4-32.7-12.3c-0.8-2.1-2.2-4-3-6.1c12.4,4.5,25.2,9.3,37.4,14.2
					C44.1,65,43.3,66.2,42.8,68z"/>
			</g>
			<g>
				<path class="st5" d="M7,49.5c0.8,2.1,2.2,4,3,6.1c11,4.2,22.1,8.4,32.7,12.3c0.3-1.4,1.3-2.9,1.6-4.3c0.3-1.4,1.3-2.9,1.6-4.3
					L13.3,47C11.2,47.9,9.1,48.7,7,49.5c12.4,4.5,25.2,9.3,37.4,14.2"/>
			</g>
		</g>
	</g>
</g>
</svg>
