<?xml version="1.0" encoding="utf-8"?>
<!-- Generator: Adobe Illustrator 21.1.0, SVG Export Plug-In . SVG Version: 6.00 Build 0)  -->
<svg version="1.1" id="Layer_1" xmlns="http://www.w3.org/2000/svg" xmlns:xlink="http://www.w3.org/1999/xlink" x="0px" y="0px"
	 viewBox="0 0 100 100" style="enable-background:new 0 0 100 100;" xml:space="preserve">
<style type="text/css">
	.st0{fill:#3E992B;stroke:#438E2B;stroke-width:0.5;stroke-miterlimit:10;}
	.st1{fill:#307C23;stroke:#1D511D;stroke-width:0.5;stroke-miterlimit:10;}
	.st2{fill:#3E9A2B;stroke:#438F2B;stroke-width:0.5;stroke-miterlimit:10;}
	.st3{fill:#3F9B2C;stroke:#448F2C;stroke-width:0.5;stroke-miterlimit:10;}
	.st4{fill:#3F9C2C;stroke:#44902C;stroke-width:0.5;stroke-miterlimit:10;}
	.st5{fill:#409D2C;stroke:#45902D;stroke-width:0.5;stroke-miterlimit:10;}
	.st6{fill:#409E2C;stroke:#45912D;stroke-width:0.5;stroke-miterlimit:10;}
	.st7{fill:#419F2D;stroke:#46912D;stroke-width:0.5;stroke-miterlimit:10;}
	.st8{fill:#41A02D;stroke:#46922E;stroke-width:0.5;stroke-miterlimit:10;}
	.st9{fill:#42A12D;stroke:#47922E;stroke-width:0.5;stroke-miterlimit:10;}
	.st10{fill:#42A22D;stroke:#47932F;stroke-width:0.5;stroke-miterlimit:10;}
	.st11{fill:#43A32E;stroke:#48932F;stroke-width:0.5;stroke-miterlimit:10;}
	.st12{fill:#43A42E;stroke:#48942F;stroke-width:0.5;stroke-miterlimit:10;}
	.st13{fill:#44A52E;stroke:#499430;stroke-width:0.5;stroke-miterlimit:10;}
	.st14{fill:#44A62E;stroke:#499530;stroke-width:0.5;stroke-miterlimit:10;}
	.st15{fill:#45A72F;stroke:#4A9530;stroke-width:0.5;stroke-miterlimit:10;}
	.st16{fill:#45A82F;stroke:#4A9631;stroke-width:0.5;stroke-miterlimit:10;}
	.st17{fill:#46A92F;stroke:#4B9631;stroke-width:0.5;stroke-miterlimit:10;}
	.st18{fill:#46AA30;stroke:#4B9732;stroke-width:0.5;stroke-miterlimit:10;}
	.st19{fill:#47AB30;stroke:#4C9732;stroke-width:0.5;stroke-miterlimit:10;}
	.st20{fill:#47AC30;stroke:#4C9832;stroke-width:0.5;stroke-miterlimit:10;}
	.st21{fill:#48AD30;stroke:#4D9833;stroke-width:0.5;stroke-miterlimit:10;}
	.st22{fill:#48AD31;stroke:#4D9933;stroke-width:0.5;stroke-miterlimit:10;}
	.st23{fill:#49AE31;stroke:#4E9934;stroke-width:0.5;stroke-miterlimit:10;}
	.st24{fill:#49AF31;stroke:#4E9A34;stroke-width:0.5;stroke-miterlimit:10;}
	.st25{fill:#4AB031;stroke:#4F9A34;stroke-width:0.5;stroke-miterlimit:10;}
	.st26{fill:#4AB132;stroke:#4F9B35;stroke-width:0.5;stroke-miterlimit:10;}
	.st27{fill:#4BB232;stroke:#509B35;stroke-width:0.5;stroke-miterlimit:10;}
	.st28{fill:#4BB332;stroke:#509C36;stroke-width:0.5;stroke-miterlimit:10;}
	.st29{fill:#4CB433;stroke:#519C36;stroke-width:0.5;stroke-miterlimit:10;}
	.st30{fill:#4CB533;stroke:#519D36;stroke-width:0.5;stroke-miterlimit:10;}
	.st31{fill:#4DB633;stroke:#529D37;stroke-width:0.5;stroke-miterlimit:10;}
	.st32{fill:#4DB733;stroke:#529E37;stroke-width:0.5;stroke-miterlimit:10;}
	.st33{fill:#4EB834;stroke:#539E37;stroke-width:0.5;stroke-miterlimit:10;}
	.st34{fill:#4EB934;stroke:#539F38;stroke-width:0.5;stroke-miterlimit:10;}
	.st35{fill:#4FBA34;stroke:#549F38;stroke-width:0.5;stroke-miterlimit:10;}
	.st36{fill:#4FBB34;stroke:#54A039;stroke-width:0.5;stroke-miterlimit:10;}
	.st37{fill:#50BC35;stroke:#55A039;stroke-width:0.5;stroke-miterlimit:10;}
	.st38{fill:#50BD35;stroke:#55A139;stroke-width:0.5;stroke-miterlimit:10;}
	.st39{fill:#51BE35;stroke:#56A13A;stroke-width:0.5;stroke-miterlimit:10;}
	.st40{fill:#51BF35;stroke:#56A23A;stroke-width:0.5;stroke-miterlimit:10;}
	.st41{fill:#52C036;stroke:#57A23B;stroke-width:0.5;stroke-miterlimit:10;}
	.st42{fill:#52C136;stroke:#57A33B;stroke-width:0.5;stroke-miterlimit:10;}
</style>
<path class="st0" d="M48.6,12.4c-4.2-1.1-6.2-1.1-8-0.8c-5.4,1-8.9,5.1-10.3,7c-1.2,0.3-9.1,2.6-12.4,10.7c-1.6,3.8-1.5,7.3-1.4,9.3
	c0.3,3.2,1.2,5.5,0,8c-0.7,1.4-1.3,1.5-2.6,3c-3.4,4.1-3.5,9.3-3.5,9.6c0,4.8,2.4,8.2,3.5,9.6c1.2,1.7,2.5,2.9,3.5,3.6
	c0.3,1.5,0.7,3.1,1.2,4.8c0.9,3.1,1.9,5.7,3,8c4,1.9,10,4.1,17.5,4.2c3.8,0.1,9.1,0.1,15.1-2.9c3.4-1.7,5.9-3.8,7.5-5.3
	c1.5,0.7,4.2,1.7,7.5,1.3c5.9-0.7,9.4-5.5,11.3-8c3.8-5.1,4.7-10.5,5-13.3c1.1-2.6,2.8-7.8,1.3-13.3c-0.4-1.3-1.1-2.7-2.5-5.3
	c-1.6-3-3.1-5.9-5.5-8.6c-2.2-2.4-3.1-2.6-5.8-4.8c-2.2-1.9-5.2-4.9-8.1-9.6C58.3,15.4,52.5,13.4,48.6,12.4z"/>
<path class="st1" d="M47.7,8.2c-3.6-0.3-6.5,0.6-7.9,1.1c-5.8,1.8-9.5,5.4-11.3,7.4c-1.3,0.3-9.9,2.8-13.6,11.4
	c-1.7,4-1.7,7.7-1.5,9.8c0.3,2,0.5,5,0,8.5c-0.6,3.9-1.8,5.8-2.7,8.5c-2.9,8.3-0.5,16.6,0,18.4c0.7,2.2,1.3,3.1,8.2,14.1l0,0l0,0
	c4.5,2.1,11,4.3,19.1,4.4c4.1,0.1,9.9,0.1,16.5-3c3.7-1.8,6.5-4,8.2-5.7c1.7,0.8,4.6,1.8,8.2,1.4c6.4-0.8,10.3-5.8,12.3-8.5
	c4.1-5.4,5.2-11.2,5.5-14.1c1.2-2.8,3.1-8.3,1.4-14.1c-0.7-2.5-1.9-4.4-2.7-5.7c-3.3-5.2-5.8-5.2-8.7-9.6c-2.7-4.1-1.4-5.5-3.6-8.8
	c-1.7-2.6-5.1-5.6-12.3-7.1C61.2,14.9,55.8,8.8,47.7,8.2z"/>
<g>
	<path class="st0" d="M48.6,12.4c-4.2-1.1-6.2-1.1-8-0.8c-5.4,1-8.9,5.1-10.3,7c-1.2,0.3-9.1,2.6-12.4,10.7
		c-1.6,3.8-1.5,7.3-1.4,9.3c0.3,3.2,1.2,5.5,0,8c-0.7,1.4-1.3,1.5-2.6,3c-3.4,4.1-3.5,9.3-3.5,9.6c0,4.8,2.4,8.2,3.5,9.6
		c1.2,1.7,2.5,2.9,3.5,3.6c0.3,1.5,0.7,3.1,1.2,4.8c0.9,3.1,1.9,5.7,3,8c4,1.9,10,4.1,17.5,4.2c3.8,0.1,9.1,0.1,15.1-2.9
		c3.4-1.7,5.9-3.8,7.5-5.3c1.5,0.7,4.2,1.7,7.5,1.3c5.9-0.7,9.4-5.5,11.3-8c3.8-5.1,4.7-10.5,5-13.3c1.1-2.6,2.8-7.8,1.3-13.3
		c-0.4-1.3-1.1-2.7-2.5-5.3c-1.6-3-3.1-5.9-5.5-8.6c-2.2-2.4-3.1-2.6-5.8-4.8c-2.2-1.9-5.2-4.9-8.1-9.6
		C58.3,15.4,52.5,13.4,48.6,12.4z"/>
	<path class="st2" d="M48.6,12.5c-4.2-1.1-6.2-1.1-7.9-0.8c-5.4,1-8.9,5.1-10.3,7c-1.2,0.3-9,2.6-12.4,10.7
		c-1.6,3.8-1.5,7.3-1.3,9.3c0.3,3.2,1.2,5.5,0,8c-0.7,1.4-1.3,1.5-2.6,3c-3.4,4.1-3.5,9.3-3.5,9.6c0,4.8,2.4,8.2,3.5,9.6
		c1.2,1.7,2.5,2.9,3.5,3.6c0.3,1.5,0.7,3.1,1.2,4.8c0.9,3,1.9,5.7,3,8c4,1.9,10,4.1,17.4,4.2c3.8,0.1,9.1,0.1,15-2.8
		c3.4-1.7,5.9-3.8,7.5-5.3c1.5,0.7,4.2,1.7,7.5,1.3c5.9-0.7,9.4-5.5,11.2-8c3.8-5.1,4.7-10.5,5-13.3c1.1-2.6,2.8-7.8,1.2-13.3
		c-0.4-1.3-1.1-2.7-2.5-5.3c-1.6-3-3.1-5.9-5.5-8.6c-2.1-2.4-3.1-2.6-5.8-4.8c-2.2-1.9-5.2-4.9-8.1-9.6
		C58.3,15.5,52.5,13.5,48.6,12.5z"/>
	<path class="st3" d="M48.6,12.5c-4.1-1.1-6.2-1.1-7.9-0.8c-5.4,1-8.9,5-10.3,7c-1.2,0.3-9,2.6-12.4,10.7c-1.6,3.8-1.5,7.3-1.3,9.2
		c0.3,3.2,1.2,5.4,0,8c-0.7,1.4-1.3,1.5-2.6,3c-3.4,4.1-3.4,9.3-3.4,9.6c0,4.8,2.4,8.2,3.4,9.6c1.2,1.7,2.5,2.9,3.4,3.6
		c0.3,1.5,0.7,3.1,1.1,4.8c0.9,3,1.9,5.7,3,8c4,1.9,10,4,17.4,4.2c3.8,0.1,9,0.1,15-2.8c3.4-1.7,5.9-3.8,7.5-5.3
		C63,82,65.7,83,69,82.6c5.9-0.7,9.4-5.5,11.2-8c3.8-5.1,4.7-10.5,5-13.3c1.1-2.6,2.8-7.8,1.2-13.3c-0.4-1.3-1.1-2.6-2.5-5.3
		c-1.5-3-3.1-5.8-5.5-8.6c-2.1-2.4-3.1-2.6-5.7-4.8c-2.2-1.9-5.2-4.9-8-9.6C58.3,15.6,52.5,13.6,48.6,12.5z"/>
	<path class="st4" d="M48.7,12.6c-4.1-1.1-6.2-1.1-7.9-0.8c-5.4,1-8.8,5-10.3,7c-1.2,0.3-9,2.6-12.3,10.6c-1.6,3.8-1.5,7.3-1.3,9.2
		c0.3,3.2,1.2,5.4,0,7.9c-0.7,1.4-1.3,1.4-2.6,3c-3.4,4.2-3.5,9.4-3.5,9.7c0,4.8,2.4,8.2,3.4,9.6c1.2,1.7,2.5,2.9,3.4,3.6
		c0.3,1.5,0.7,3.1,1.1,4.8c0.9,3,1.9,5.7,3,7.9c4,1.9,9.9,4,17.4,4.2c3.7,0.1,9,0.1,15-2.8c3.4-1.7,5.9-3.8,7.5-5.3
		c1.5,0.7,4.2,1.7,7.5,1.3c5.8-0.7,9.3-5.4,11.2-7.9c3.8-5.1,4.7-10.5,5-13.2c1.1-2.6,2.8-7.7,1.2-13.2c-0.4-1.3-1.1-2.6-2.5-5.3
		c-1.5-2.9-3.1-5.8-5.5-8.5c-2.1-2.4-3.1-2.5-5.7-4.8c-2.2-1.9-5.2-4.9-8-9.6C58.2,15.6,52.6,13.6,48.7,12.6z"/>
	<path class="st5" d="M48.7,12.7c-4.1-1.1-6.1-1.1-7.9-0.8c-5.4,1-8.8,5-10.2,6.9c-1.2,0.3-9,2.6-12.3,10.6
		c-1.6,3.8-1.5,7.2-1.3,9.2c0.3,3.2,1.2,5.4,0,7.9c-0.7,1.4-1.3,1.4-2.6,3C11,53.6,11,58.7,11,59c0,4.8,2.4,8.1,3.4,9.5
		c1.2,1.7,2.5,2.9,3.4,3.6c0.3,1.5,0.7,3.1,1.1,4.8c0.9,3,1.9,5.7,3,7.9c3.9,1.9,9.9,4,17.3,4.2c3.7,0.1,9,0.1,14.9-2.8
		c3.4-1.7,5.9-3.7,7.4-5.3c1.5,0.7,4.2,1.7,7.4,1.3c5.8-0.7,9.3-5.4,11.2-7.9c3.7-5.1,4.7-10.4,5-13.2c1.1-2.6,2.8-7.7,1.2-13.2
		c-0.4-1.3-1.1-2.6-2.5-5.3c-1.5-2.9-3-5.8-5.5-8.5c-2.1-2.4-3.1-2.5-5.7-4.8c-2.2-1.9-5.2-4.9-8-9.5C58.2,15.7,52.6,13.7,48.7,12.7
		z"/>
	<path class="st6" d="M48.7,12.7c-4.1-1.1-6.1-1.1-7.9-0.8c-5.4,1-8.8,5-10.2,6.9c-1.2,0.3-8.9,2.6-12.3,10.6
		c-1.6,3.7-1.5,7.2-1.3,9.2c0.3,3.2,1.2,5.4,0,7.9c-0.7,1.4-1.3,1.4-2.6,3C11.1,53.6,11,58.7,11,59c0,4.8,2.4,8.1,3.4,9.5
		c1.2,1.7,2.5,2.8,3.4,3.6c0.3,1.5,0.7,3.1,1.1,4.8c0.9,3,1.9,5.7,3,7.9c3.9,1.9,9.9,4,17.3,4.1c3.7,0.1,9,0.1,14.9-2.8
		c3.4-1.7,5.8-3.7,7.4-5.3c1.5,0.7,4.2,1.7,7.4,1.3c5.8-0.7,9.3-5.4,11.1-7.9c3.7-5.1,4.7-10.4,4.9-13.2c1.1-2.6,2.8-7.7,1.2-13.2
		c-0.4-1.3-1.1-2.6-2.5-5.3c-1.5-2.9-3-5.8-5.5-8.5c-2.1-2.4-3.1-2.5-5.7-4.8c-2.2-1.9-5.1-4.8-8-9.5C58.2,15.7,52.6,13.8,48.7,12.7
		z"/>
	<path class="st7" d="M48.7,12.8c-4.1-1.1-6.1-1.1-7.8-0.7c-5.3,1-8.8,5-10.2,6.9c-1.2,0.3-8.9,2.6-12.2,10.6
		c-1.6,3.7-1.5,7.2-1.3,9.2c0.3,3.2,1.2,5.4,0,7.9c-0.7,1.4-1.3,1.4-2.6,3c-3.3,4.1-3.4,9.2-3.4,9.5c0,4.8,2.4,8.1,3.4,9.5
		c1.2,1.7,2.5,2.8,3.4,3.6c0.3,1.5,0.7,3.1,1.1,4.7c0.9,3,1.9,5.7,2.9,7.9c3.9,1.9,9.9,4,17.2,4.1c3.7,0.1,9,0.1,14.8-2.8
		c3.4-1.7,5.8-3.7,7.4-5.3c1.5,0.7,4.2,1.7,7.4,1.3c5.8-0.7,9.3-5.4,11.1-7.9c3.7-5,4.7-10.4,4.9-13.2c1.1-2.6,2.8-7.7,1.2-13.2
		c-0.4-1.3-1.1-2.6-2.5-5.3c-1.5-2.9-3-5.8-5.4-8.5c-2.1-2.4-3.1-2.5-5.7-4.7c-2.2-1.9-5.1-4.8-8-9.5C58.2,15.8,52.6,13.8,48.7,12.8
		z"/>
	<path class="st8" d="M48.7,12.9c-4.1-1.1-6.1-1.1-7.8-0.7c-5.3,1-8.7,5-10.2,6.9c-1.2,0.3-8.9,2.6-12.2,10.6
		c-1.6,3.7-1.5,7.2-1.3,9.1c0.3,3.2,1.2,5.4,0,7.9c-0.7,1.4-1.3,1.4-2.6,3c-3.3,4-3.4,9.2-3.4,9.5c0,4.7,2.4,8.1,3.4,9.5
		c1.2,1.7,2.5,2.8,3.4,3.6c0.3,1.5,0.7,3.1,1.1,4.7c0.9,3,1.9,5.6,2.9,7.9c3.9,1.9,9.8,4,17.2,4.1c3.7,0.1,8.9,0.1,14.8-2.8
		c3.4-1.7,5.8-3.7,7.4-5.3c1.5,0.7,4.2,1.7,7.4,1.3c5.8-0.7,9.2-5.4,11.1-7.9c3.7-5,4.6-10.4,4.9-13.1c1.1-2.6,2.8-7.7,1.2-13.1
		c-0.4-1.3-1.1-2.6-2.5-5.3c-1.5-2.9-3-5.8-5.4-8.5c-2.1-2.4-3.1-2.5-5.7-4.7c-2.2-1.9-5.1-4.8-7.9-9.5
		C58.2,15.8,52.6,13.9,48.7,12.9z"/>
	<path class="st9" d="M48.7,12.9c-4.1-1.1-6.1-1.1-7.8-0.7c-5.3,1-8.7,5-10.1,6.9c-1.2,0.3-8.9,2.6-12.2,10.5
		c-1.6,3.7-1.5,7.2-1.3,9.1c0.3,3.2,1.2,5.4,0,7.9c-0.7,1.4-1.3,1.4-2.6,3c-3.3,4-3.4,9.2-3.4,9.5c0,4.7,2.4,8.1,3.4,9.5
		c1.2,1.7,2.5,2.8,3.4,3.5c0.3,1.5,0.7,3.1,1.1,4.7c0.9,3,1.9,5.6,2.9,7.9c3.9,1.9,9.8,4,17.1,4.1c3.7,0.1,8.9,0.1,14.8-2.8
		c3.4-1.7,5.8-3.7,7.4-5.2c1.5,0.7,4.1,1.7,7.4,1.3c5.8-0.7,9.2-5.4,11-7.9c3.7-5,4.6-10.4,4.9-13.1c1.1-2.6,2.8-7.7,1.2-13.1
		c-0.4-1.3-1.1-2.6-2.5-5.2c-1.5-2.9-3-5.8-5.4-8.5c-2.1-2.4-3.1-2.5-5.7-4.7c-2.2-1.9-5.1-4.8-7.9-9.5
		C58.2,15.9,52.6,13.9,48.7,12.9z"/>
	<path class="st10" d="M48.7,13c-4.1-1.1-6.1-1.1-7.8-0.7c-5.3,1-8.7,5-10.1,6.9c-1.2,0.3-8.8,2.6-12.1,10.5
		c-1.5,3.7-1.5,7.2-1.3,9.1c0.3,3.2,1.2,5.4,0,7.9c-0.7,1.4-1.3,1.4-2.5,3c-3.3,4-3.4,9.1-3.4,9.4c0,4.7,2.4,8.1,3.4,9.4
		c1.2,1.7,2.5,2.8,3.4,3.5c0.3,1.5,0.7,3.1,1.1,4.7c0.9,3,1.9,5.6,2.9,7.9c3.9,1.9,9.8,4,17.1,4.1c3.7,0.1,8.9,0.1,14.7-2.8
		c3.3-1.7,5.8-3.7,7.3-5.2c1.5,0.7,4.1,1.7,7.3,1.3c5.7-0.7,9.2-5.4,11-7.9c3.7-5,4.6-10.3,4.9-13.1c1.1-2.6,2.8-7.6,1.2-13.1
		c-0.4-1.3-1.1-2.6-2.4-5.2c-1.5-2.9-3-5.8-5.4-8.4c-2.1-2.4-3.1-2.5-5.6-4.7c-2.2-1.9-5.1-4.8-7.9-9.4C58.2,16,52.6,14,48.7,13z"/>
	<path class="st11" d="M48.8,13.1c-4.1-1.1-6-1.1-7.7-0.7c-5.3,1-8.7,5-10.1,6.9c-1.2,0.2-8.9,2.5-12.2,10.4
		c-1.5,3.7-1.5,7.2-1.3,9.1c0.3,3.2,1.2,5.4,0,7.8c-0.7,1.4-1.3,1.4-2.5,3c-3.3,4-3.4,9.1-3.4,9.4c0,4.7,2.4,8,3.4,9.4
		c1.2,1.7,2.5,2.8,3.4,3.5c0.3,1.5,0.7,3.1,1.1,4.7c0.9,3,1.9,5.6,2.9,7.8c3.9,1.9,9.8,4,17,4.1c3.7,0.1,8.9,0.1,14.7-2.8
		c3.3-1.7,5.8-3.7,7.3-5.2c1.5,0.7,4.1,1.7,7.3,1.3c5.7-0.7,9.2-5.4,11-7.8c3.7-5,4.6-10.3,4.9-13.1c1.1-2.6,2.8-7.6,1.2-13.1
		c-0.4-1.3-1.1-2.6-2.4-5.2c-1.5-2.9-3-5.8-5.4-8.4c-2.1-2.3-3.1-2.5-5.6-4.7c-2.2-1.9-5.1-4.8-7.9-9.4C58.2,16,52.6,14.1,48.8,13.1
		z"/>
	<path class="st12" d="M48.8,13.1c-4-1.1-6-1.1-7.7-0.7c-5.3,1-8.6,5-10,6.8C30,19.5,22.3,21.8,19,29.7c-1.5,3.7-1.5,7.1-1.3,9.1
		c0.3,3.2,1.2,5.4,0,7.8c-0.7,1.4-1.3,1.4-2.5,3c-3.3,4-3.4,9.1-3.4,9.4c0,4.7,2.4,8,3.4,9.4c1.2,1.7,2.5,2.8,3.4,3.5
		c0.3,1.5,0.7,3,1.1,4.7c0.9,3,1.9,5.6,2.9,7.8c3.9,1.9,9.7,4,17,4.1c3.7,0.1,8.8,0.1,14.7-2.8c3.3-1.6,5.8-3.7,7.3-5.2
		c1.5,0.7,4.1,1.7,7.3,1.3c5.7-0.7,9.1-5.4,11-7.8c3.7-5,4.6-10.3,4.9-13c1.1-2.6,2.7-7.6,1.2-13c-0.4-1.3-1.1-2.6-2.4-5.2
		c-1.5-2.9-3-5.7-5.4-8.4c-2.1-2.3-3-2.5-5.6-4.7c-2.2-1.8-5.1-4.8-7.9-9.4C58.2,16.1,52.6,14.1,48.8,13.1z"/>
	<path class="st13" d="M48.8,13.2c-4-1.1-6-1.1-7.7-0.7c-5.3,1-8.6,4.9-10,6.8c-1.1,0.3-8.8,2.6-12,10.5c-1.5,3.7-1.5,7.1-1.3,9.1
		c0.3,3.2,1.2,5.3,0,7.8c-0.7,1.4-1.3,1.4-2.5,2.9c-3.3,4-3.4,9.1-3.4,9.4c0,4.7,2.4,8,3.4,9.4c1.2,1.7,2.5,2.8,3.4,3.5
		c0.3,1.5,0.6,3,1.1,4.7c0.9,3,1.9,5.6,2.9,7.8c3.9,1.9,9.7,4,17,4.1c3.7,0.1,8.8,0.1,14.6-2.8c3.3-1.6,5.7-3.7,7.3-5.2
		c1.5,0.7,4.1,1.7,7.3,1.3c5.7-0.7,9.1-5.3,10.9-7.8c3.7-5,4.6-10.3,4.9-13c1.1-2.6,2.7-7.6,1.2-13c-0.4-1.3-1.1-2.6-2.4-5.2
		c-1.5-2.9-3-5.7-5.4-8.4c-2.1-2.3-3-2.5-5.6-4.7c-2.2-1.8-5.1-4.8-7.8-9.4C58.2,16.1,52.6,14.2,48.8,13.2z"/>
	<path class="st14" d="M48.8,13.3c-4-1.1-6-1.1-7.7-0.7c-5.3,1-8.6,4.9-10,6.8c-1.1,0.3-8.8,2.6-12,10.4c-1.5,3.7-1.5,7.1-1.3,9
		c0.3,3.2,1.2,5.3,0,7.8c-0.7,1.4-1.3,1.4-2.5,2.9c-3.3,4-3.4,9.1-3.4,9.4c0,4.7,2.4,8,3.4,9.4c1.2,1.7,2.5,2.8,3.4,3.5
		c0.3,1.5,0.6,3,1.1,4.7c0.9,3,1.9,5.6,2.9,7.8c3.9,1.9,9.7,4,16.9,4.1c3.6,0.1,8.8,0.1,14.6-2.8c3.3-1.6,5.7-3.7,7.3-5.2
		c1.5,0.7,4.1,1.7,7.3,1.3c5.7-0.7,9.1-5.3,10.9-7.8c3.7-5,4.6-10.3,4.8-13c1.1-2.6,2.7-7.6,1.2-13c-0.4-1.3-1.1-2.6-2.4-5.2
		c-1.5-2.9-3-5.7-5.3-8.4c-2.1-2.3-3-2.5-5.6-4.7c-2.2-1.8-5-4.8-7.8-9.4C58.1,16.2,52.6,14.3,48.8,13.3z"/>
	<path class="st15" d="M48.8,13.3c-4-1.1-6-1-7.7-0.7c-5.2,1-8.6,4.9-10,6.8c-1.1,0.3-8.7,2.6-12,10.4c-1.5,3.7-1.5,7.1-1.3,9
		c0.3,3.2,1.2,5.3,0,7.8c-0.7,1.4-1.3,1.4-2.5,2.9c-3.3,4-3.3,9-3.3,9.3c0,4.7,2.4,8,3.3,9.3c1.2,1.7,2.4,2.8,3.3,3.5
		c0.3,1.5,0.6,3,1.1,4.7c0.8,3,1.9,5.6,2.9,7.8c3.8,1.8,9.7,3.9,16.9,4.1c3.6,0.1,8.8,0.1,14.5-2.8c3.3-1.6,5.7-3.7,7.2-5.2
		c1.5,0.7,4.1,1.7,7.2,1.3c5.7-0.7,9.1-5.3,10.9-7.8c3.6-5,4.6-10.2,4.8-13c1.1-2.5,2.7-7.6,1.2-13c-0.4-1.3-1.1-2.6-2.4-5.2
		c-1.5-2.9-3-5.7-5.3-8.4c-2.1-2.3-3-2.5-5.6-4.7c-2.1-1.8-5-4.8-7.8-9.3C58.1,16.3,52.6,14.3,48.8,13.3z"/>
	<path class="st16" d="M48.8,13.4c-4-1.1-6-1-7.6-0.7c-5.2,1-8.6,4.9-9.9,6.8c-1.1,0.3-8.7,2.6-12,10.4c-1.5,3.7-1.5,7.1-1.3,9
		c0.3,3.1,1.2,5.3,0,7.8c-0.7,1.4-1.3,1.4-2.5,2.9c-3.3,4-3.3,9-3.3,9.3c0,4.7,2.4,8,3.3,9.3c1.2,1.7,2.4,2.8,3.3,3.5
		c0.3,1.5,0.6,3,1.1,4.7c0.8,3,1.9,5.6,2.9,7.8c3.8,1.8,9.6,3.9,16.8,4.1c3.6,0.1,8.7,0.1,14.5-2.8c3.3-1.6,5.7-3.7,7.2-5.2
		c1.5,0.7,4.1,1.7,7.2,1.3c5.7-0.7,9-5.3,10.8-7.8c3.6-4.9,4.5-10.2,4.8-12.9c1.1-2.5,2.7-7.6,1.2-12.9c-0.4-1.3-1.1-2.6-2.4-5.2
		c-1.5-2.9-3-5.7-5.3-8.3c-2.1-2.3-3-2.5-5.6-4.7c-2.1-1.8-5-4.7-7.8-9.3C58.1,16.3,52.6,14.4,48.8,13.4z"/>
	<path class="st17" d="M48.8,13.4c-4-1.1-5.9-1-7.6-0.7c-5.2,1-8.5,4.9-9.9,6.8c-1.1,0.3-8.7,2.6-11.9,10.4c-1.5,3.7-1.5,7.1-1.3,9
		c0.3,3.1,1.2,5.3,0,7.7c-0.7,1.4-1.3,1.4-2.5,2.9c-3.2,4-3.3,9-3.3,9.3c0,4.7,2.3,7.9,3.3,9.3c1.2,1.7,2.4,2.8,3.3,3.5
		c0.3,1.5,0.6,3,1.1,4.7c0.8,3,1.9,5.5,2.9,7.7c3.8,1.8,9.6,3.9,16.8,4.1c3.6,0.1,8.7,0.1,14.5-2.8c3.3-1.6,5.7-3.7,7.2-5.2
		c1.5,0.7,4.1,1.7,7.2,1.3c5.6-0.7,9-5.3,10.8-7.7c3.6-4.9,4.5-10.2,4.8-12.9c1.1-2.5,2.7-7.5,1.2-12.9c-0.4-1.3-1.1-2.6-2.4-5.2
		c-1.5-2.9-3-5.7-5.3-8.3c-2.1-2.3-3-2.5-5.5-4.7c-2.1-1.8-5-4.7-7.8-9.3C58.1,16.4,52.6,14.4,48.8,13.4z"/>
	<path class="st18" d="M48.9,13.5c-4-1.1-5.9-1-7.6-0.7c-5.2,1-8.5,4.9-9.9,6.8c-1.1,0.3-8.7,2.6-11.9,10.3c-1.5,3.7-1.5,7.1-1.3,9
		c0.3,3.1,1.2,5.3,0,7.7c-0.7,1.4-1.3,1.4-2.5,2.9c-3.2,4-3.3,9-3.3,9.3c0,4.6,2.3,7.9,3.3,9.3c1.2,1.6,2.4,2.8,3.3,3.5
		c0.3,1.5,0.6,3,1.1,4.6c0.8,2.9,1.9,5.5,2.9,7.7c3.8,1.8,9.6,3.9,16.7,4c3.6,0.1,8.7,0.1,14.4-2.8c3.3-1.6,5.7-3.6,7.2-5.1
		c1.4,0.7,4,1.7,7.2,1.3c5.6-0.7,9-5.3,10.8-7.7c3.6-4.9,4.5-10.2,4.8-12.9c1.1-2.5,2.7-7.5,1.2-12.8c-0.4-1.3-1.1-2.6-2.4-5.1
		c-1.5-2.9-2.9-5.7-5.3-8.3c-2.1-2.3-3-2.5-5.5-4.6c-2.1-1.8-5-4.7-7.7-9.3C58.1,16.4,52.6,14.5,48.9,13.5z"/>
	<path class="st19" d="M48.9,13.6c-4-1.1-5.9-1-7.6-0.7c-5.2,1-8.5,4.9-9.9,6.7c-1.1,0.3-8.6,2.5-11.9,10.3c-1.5,3.6-1.5,7-1.3,8.9
		c0.3,3.1,1.2,5.3,0,7.7c-0.7,1.4-1.3,1.4-2.5,2.9c-3.2,4-3.3,9-3.3,9.3c0,4.6,2.3,7.9,3.3,9.3c1.2,1.6,2.4,2.8,3.3,3.5
		c0.3,1.5,0.6,3,1.1,4.6c0.8,2.9,1.8,5.5,2.9,7.7c3.8,1.8,9.6,3.9,16.7,4c3.6,0.1,8.7,0.1,14.4-2.8c3.3-1.6,5.6-3.6,7.2-5.1
		c1.4,0.7,4,1.7,7.2,1.3c5.6-0.7,9-5.3,10.8-7.7c3.6-4.9,4.5-10.2,4.8-12.8c1.1-2.5,2.7-7.5,1.2-12.8c-0.4-1.3-1.1-2.6-2.4-5.1
		c-1.5-2.9-2.9-5.7-5.3-8.3c-2.1-2.3-3-2.5-5.5-4.6c-2.1-1.8-5-4.7-7.7-9.3C58.1,16.5,52.6,14.6,48.9,13.6z"/>
	<path class="st20" d="M48.9,13.6c-4-1.1-5.9-1-7.6-0.7c-5.2,1-8.5,4.9-9.8,6.7c-1.1,0.3-8.6,2.5-11.8,10.3c-1.5,3.6-1.5,7-1.3,8.9
		c0.3,3.1,1.2,5.3,0,7.7c-0.7,1.4-1.3,1.4-2.5,2.9c-3.2,3.9-3.3,9-3.3,9.2c0,4.6,2.3,7.9,3.3,9.2c1.2,1.6,2.4,2.8,3.3,3.5
		c0.3,1.5,0.6,3,1.1,4.6c0.8,2.9,1.8,5.5,2.8,7.7c3.8,1.8,9.5,3.9,16.6,4c3.6,0.1,8.6,0.1,14.3-2.7c3.3-1.6,5.6-3.6,7.2-5.1
		c1.4,0.7,4,1.7,7.2,1.3c5.6-0.7,8.9-5.3,10.7-7.7c3.6-4.9,4.5-10.1,4.8-12.8c1.1-2.5,2.7-7.5,1.2-12.8c-0.4-1.3-1.1-2.6-2.4-5.1
		c-1.5-2.9-2.9-5.6-5.3-8.3c-2-2.3-3-2.5-5.5-4.6c-2.1-1.8-5-4.7-7.7-9.2C58.1,16.6,52.6,14.6,48.9,13.6z"/>
	<path class="st21" d="M48.9,13.7c-3.9-1.1-5.9-1-7.5-0.7c-5.2,1-8.4,4.9-9.8,6.7C30.4,20,23,22.2,19.8,30c-1.5,3.6-1.5,7-1.3,8.9
		c0.3,3.1,1.2,5.3,0,7.7C17.8,48,17.3,48,16,49.5c-3.2,3.9-3.3,8.9-3.3,9.2c0,4.6,2.3,7.9,3.3,9.2c1.2,1.6,2.4,2.8,3.3,3.5
		c0.3,1.4,0.6,3,1.1,4.6c0.8,2.9,1.8,5.5,2.8,7.7c3.8,1.8,9.5,3.9,16.6,4c3.6,0.1,8.6,0.1,14.3-2.7c3.2-1.6,5.6-3.6,7.1-5.1
		c1.4,0.7,4,1.7,7.1,1.3c5.6-0.7,8.9-5.3,10.7-7.7c3.6-4.9,4.5-10.1,4.8-12.8c1.1-2.5,2.7-7.5,1.2-12.8c-0.4-1.3-1-2.6-2.4-5.1
		c-1.5-2.8-2.9-5.6-5.2-8.3c-2-2.3-3-2.5-5.5-4.6c-2.1-1.8-4.9-4.7-7.7-9.2C58.1,16.6,52.6,14.7,48.9,13.7z"/>
	<path class="st22" d="M48.9,13.8c-3.9-1-5.9-1-7.5-0.7c-5.1,1-8.4,4.9-9.8,6.7c-1.1,0.3-8.6,2.5-11.8,10.3c-1.5,3.6-1.5,7-1.3,8.9
		c0.3,3.1,1.2,5.2,0,7.7c-0.7,1.4-1.2,1.4-2.5,2.9c-3.2,3.9-3.3,8.9-3.3,9.2c0,4.6,2.3,7.9,3.3,9.2c1.2,1.6,2.4,2.8,3.3,3.5
		c0.3,1.4,0.6,3,1.1,4.6c0.8,2.9,1.8,5.5,2.8,7.7c3.8,1.8,9.5,3.9,16.6,4c3.6,0.1,8.6,0.1,14.3-2.7c3.2-1.6,5.6-3.6,7.1-5.1
		c1.4,0.7,4,1.7,7.1,1.3c5.6-0.7,8.9-5.2,10.7-7.7c3.6-4.9,4.5-10.1,4.7-12.8c1.1-2.5,2.7-7.5,1.2-12.8c-0.4-1.3-1-2.5-2.4-5.1
		c-1.5-2.8-2.9-5.6-5.2-8.2c-2-2.3-3-2.5-5.5-4.6c-2.1-1.8-4.9-4.7-7.7-9.2C58.1,16.7,52.6,14.8,48.9,13.8z"/>
	<path class="st23" d="M48.9,13.8c-3.9-1-5.8-1-7.5-0.7c-5.1,1-8.4,4.8-9.8,6.7c-1.1,0.3-8.5,2.5-11.7,10.2c-1.5,3.6-1.4,7-1.3,8.9
		c0.3,3.1,1.2,5.2,0,7.6c-0.7,1.4-1.2,1.4-2.5,2.9c-3.2,3.9-3.3,8.9-3.3,9.2c0,4.6,2.3,7.8,3.3,9.2c1.2,1.6,2.4,2.7,3.3,3.4
		c0.3,1.4,0.6,3,1.1,4.6c0.8,2.9,1.8,5.5,2.8,7.6c3.8,1.8,9.5,3.9,16.5,4c3.6,0.1,8.6,0.1,14.2-2.7c3.2-1.6,5.6-3.6,7.1-5.1
		c1.4,0.7,4,1.7,7.1,1.3c5.6-0.7,8.9-5.2,10.6-7.6c3.6-4.9,4.5-10.1,4.7-12.7c1.1-2.5,2.7-7.4,1.2-12.7c-0.4-1.3-1-2.5-2.4-5.1
		c-1.5-2.8-2.9-5.6-5.2-8.2c-2-2.3-3-2.5-5.5-4.6c-2.1-1.8-4.9-4.7-7.6-9.2C58.1,16.7,52.6,14.8,48.9,13.8z"/>
	<path class="st24" d="M48.9,13.9c-3.9-1-5.8-1-7.5-0.7c-5.1,0.9-8.4,4.8-9.7,6.7c-1.1,0.3-8.5,2.5-11.7,10.2
		c-1.5,3.6-1.4,7-1.3,8.9c0.3,3.1,1.2,5.2,0,7.6C18,48,17.5,48,16.2,49.5c-3.2,3.9-3.3,8.9-3.3,9.2c0,4.6,2.3,7.8,3.3,9.2
		c1.2,1.6,2.4,2.7,3.3,3.4c0.3,1.4,0.6,3,1.1,4.6c0.8,2.9,1.8,5.5,2.8,7.6c3.7,1.8,9.4,3.9,16.5,4c3.6,0.1,8.6,0.1,14.2-2.7
		c3.2-1.6,5.6-3.6,7.1-5.1c1.4,0.7,4,1.7,7.1,1.3c5.5-0.7,8.9-5.2,10.6-7.6c3.6-4.9,4.5-10,4.7-12.7c1.1-2.5,2.7-7.4,1.2-12.7
		c-0.4-1.3-1-2.5-2.4-5.1c-1.5-2.8-2.9-5.6-5.2-8.2c-2-2.3-3-2.4-5.4-4.6c-2.1-1.8-4.9-4.7-7.6-9.2C58,16.8,52.6,14.9,48.9,13.9z"/>
	<path class="st25" d="M49,14c-3.9-1-5.8-1-7.5-0.7c-5.1,0.9-8.4,4.8-9.7,6.7c-1.1,0.3-8.5,2.5-11.7,10.2c-1.5,3.6-1.4,7-1.3,8.8
		c0.3,3.1,1.2,5.2,0,7.6c-0.7,1.3-1.2,1.4-2.4,2.9c-3.2,3.9-3.3,8.9-3.3,9.1c0,4.6,2.3,7.8,3.3,9.1c1.2,1.6,2.4,2.7,3.3,3.4
		c0.3,1.4,0.6,3,1.1,4.6c0.8,2.9,1.8,5.4,2.8,7.6c3.7,1.8,9.4,3.9,16.4,4c3.5,0.1,8.5,0.1,14.2-2.7c3.2-1.6,5.6-3.6,7.1-5.1
		c1.4,0.7,4,1.7,7.1,1.3c5.4-0.7,8.7-5.2,10.4-7.6c3.6-4.9,4.4-10,4.7-12.7c1-2.5,2.7-7.4,1.2-12.7c-0.4-1.3-1-2.5-2.4-5.1
		c-1.5-2.8-2.9-5.6-5.2-8.2c-2-2.3-2.9-2.4-5.4-4.6c-2.1-1.8-4.9-4.7-7.6-9.1C58,16.9,52.7,15,49,14z"/>
	<path class="st26" d="M49,14c-3.9-1-5.8-1-7.4-0.7c-5.1,0.9-8.3,4.8-9.7,6.6c-1.1,0.3-8.5,2.5-11.6,10.2c-1.5,3.6-1.4,6.9-1.3,8.8
		c0.3,3.1,1.2,5.2,0,7.6c-0.7,1.3-1.2,1.4-2.4,2.9c-3.2,3.9-3.2,8.8-3.2,9.1c0,4.6,2.3,7.8,3.2,9.1c1.2,1.6,2.4,2.7,3.2,3.4
		c0.3,1.4,0.6,3,1.1,4.6c0.8,2.9,1.8,5.4,2.8,7.6c3.7,1.8,9.4,3.9,16.4,4c3.5,0.1,8.5,0.1,14.1-2.7c3.2-1.6,5.5-3.6,7-5.1
		c1.4,0.7,4,1.7,7,1.3c5.5-0.7,8.8-5.2,10.6-7.6c3.5-4.8,4.4-10,4.7-12.7c1-2.5,2.6-7.4,1.2-12.7c-0.4-1.3-1-2.5-2.3-5.1
		c-1.5-2.8-2.9-5.6-5.2-8.2c-2-2.3-2.9-2.4-5.4-4.6c-2.1-1.8-4.9-4.7-7.6-9.1C58,16.9,52.7,15,49,14z"/>
	<path class="st27" d="M49,14.1c-3.9-1-5.8-1-7.4-0.7c-5.1,0.9-8.3,4.8-9.6,6.6c-1.2,0.3-8.5,2.5-11.7,10.2
		c-1.5,3.6-1.4,6.9-1.3,8.8c0.3,3.1,1.2,5.2,0,7.6c-0.7,1.3-1.2,1.4-2.4,2.9c-3.2,3.9-3.2,8.8-3.2,9.1c0,4.6,2.3,7.8,3.2,9.1
		c1.2,1.6,2.4,2.7,3.2,3.4c0.3,1.4,0.6,3,1.1,4.6c0.8,2.9,1.8,5.4,2.8,7.6c3.7,1.8,9.4,3.8,16.3,4c3.5,0.1,8.5,0.1,14.1-2.7
		c3.2-1.6,5.5-3.6,7-5.1c1.4,0.7,3.9,1.6,7,1.3c5.5-0.7,8.8-5.2,10.5-7.6c3.5-4.8,4.4-10,4.7-12.6c1-2.5,2.6-7.4,1.2-12.6
		c-0.4-1.3-1-2.5-2.3-5.1c-1.5-2.8-2.9-5.6-5.2-8.2c-2-2.3-2.9-2.4-5.4-4.6c-2.1-1.8-4.9-4.6-7.6-9.1C58,17,52.7,15.1,49,14.1z"/>
	<path class="st28" d="M49,14.2c-3.9-1-5.8-1-7.4-0.7c-5.1,0.9-8.3,4.8-9.6,6.6c-1.1,0.3-8.4,2.5-11.6,10.1
		c-1.5,3.6-1.4,6.9-1.3,8.8c0.3,3.1,1.2,5.2,0,7.6c-0.6,1.3-1.2,1.4-2.4,2.9c-3.2,3.9-3.2,8.8-3.2,9.1c0,4.6,2.3,7.8,3.2,9.1
		c1.2,1.6,2.4,2.7,3.2,3.4c0.3,1.4,0.6,2.9,1.1,4.5c0.8,2.9,1.8,5.4,2.8,7.6c3.7,1.8,9.3,3.8,16.3,4c3.5,0.1,8.5,0.1,14-2.7
		c3.2-1.6,5.5-3.6,7-5c1.4,0.7,3.9,1.6,7,1.3c5.5-0.7,8.8-5.2,10.5-7.6c3.5-4.8,4.4-10,4.7-12.6c1-2.5,2.6-7.4,1.2-12.6
		c-0.4-1.3-1-2.5-2.3-5c-1.4-2.8-2.9-5.6-5.1-8.1c-2-2.3-2.9-2.4-5.4-4.5c-2.1-1.8-4.9-4.6-7.5-9.1C58,17,52.7,15.1,49,14.2z"/>
	<path class="st29" d="M49,14.2c-3.9-1-5.8-1-7.4-0.7c-5,0.9-8.3,4.8-9.6,6.6c-1.1,0.3-8.4,2.5-11.5,10.1c-1.5,3.6-1.4,6.9-1.3,8.8
		c0.3,3.1,1.2,5.2,0,7.5c-0.6,1.3-1.2,1.4-2.4,2.9c-3.1,3.9-3.2,8.8-3.2,9.1c0,4.5,2.3,7.7,3.2,9.1c1.1,1.6,2.4,2.7,3.2,3.4
		c0.3,1.4,0.6,2.9,1.1,4.5c0.8,2.9,1.8,5.4,2.8,7.5c3.7,1.8,9.3,3.8,16.2,4c3.5,0.1,8.4,0.1,14-2.7c3.2-1.6,5.5-3.6,7-5
		c1.4,0.7,3.9,1.6,7,1.3c5.5-0.7,8.7-5.2,10.5-7.5c3.5-4.8,4.4-9.9,4.7-12.6c1-2.5,2.6-7.4,1.2-12.6c-0.4-1.3-1-2.5-2.3-5
		c-1.4-2.8-2.9-5.5-5.1-8.1c-2-2.3-2.9-2.4-5.4-4.5c-2.1-1.8-4.8-4.6-7.5-9.1C58,17.1,52.7,15.2,49,14.2z"/>
	<path class="st30" d="M49,14.3c-3.9-1-5.7-1-7.4-0.7c-5,0.9-8.2,4.8-9.6,6.6c-1.1,0.3-8.4,2.5-11.5,10.1c-1.5,3.6-1.4,6.9-1.3,8.7
		c0.3,3.1,1.1,5.2,0,7.5c-0.6,1.3-1.2,1.4-2.4,2.8c-3,3.9-3.1,8.9-3.1,9.1c0,4.5,2.3,7.7,3.2,9.1c1.1,1.6,2.4,2.7,3.2,3.4
		c0.3,1.4,0.6,2.9,1.1,4.5c0.8,2.9,1.8,5.4,2.8,7.5c3.7,1.8,9.3,3.8,16.2,3.9c3.5,0.1,8.4,0.1,14-2.7c3.2-1.6,5.5-3.6,7-5
		c1.4,0.7,3.9,1.6,7,1.3c5.4-0.7,8.7-5.2,10.4-7.5c3.5-4.8,4.4-9.9,4.6-12.6c1-2.5,2.6-7.3,1.2-12.6c-0.3-1.3-1-2.5-2.3-5
		c-1.4-2.8-2.8-5.5-5.1-8.1c-2-2.3-2.9-2.4-5.3-4.5c-2.1-1.8-4.8-4.6-7.5-9.1C58,17.2,52.7,15.3,49,14.3z"/>
	<path class="st31" d="M49.1,14.4c-3.8-1-5.7-1-7.3-0.7c-5,0.9-8.2,4.8-9.5,6.6c-1.1,0.3-8.4,2.5-11.5,10.1
		c-1.5,3.6-1.4,6.9-1.2,8.7c0.3,3,1.1,5.1,0,7.5c-0.6,1.3-1.2,1.4-2.4,2.8c-3.1,3.9-3.2,8.8-3.2,9c0,4.5,2.3,7.7,3.2,9
		c1.1,1.6,2.3,2.7,3.2,3.4c0.3,1.4,0.6,2.9,1.1,4.5c0.8,2.9,1.8,5.4,2.8,7.5c3.7,1.8,9.3,3.8,16.1,3.9c3.5,0.1,8.4,0.1,13.9-2.7
		c3.2-1.6,5.5-3.6,6.9-5c1.4,0.7,3.9,1.6,6.9,1.3c5.4-0.7,8.7-5.1,10.4-7.5c3.5-4.8,4.4-9.9,4.6-12.5c1-2.5,2.6-7.3,1.2-12.5
		c-0.3-1.2-1-2.5-2.3-5c-1.4-2.8-2.8-5.5-5.1-8.1c-2-2.3-2.9-2.4-5.3-4.5c-2.1-1.8-4.8-4.6-7.5-9C58,17.2,52.7,15.3,49.1,14.4z"/>
	<path class="st32" d="M49.1,14.4c-3.8-1-5.7-1-7.3-0.7c-5,0.9-8.2,4.8-9.5,6.6c-1.1,0.3-8.3,2.5-11.4,10c-1.5,3.6-1.4,6.9-1.2,8.7
		c0.3,3,1.1,5.1,0,7.5c-0.6,1.3-1.2,1.4-2.4,2.8c-3.1,3.8-3.2,8.7-3.2,9c0,4.5,2.3,7.7,3.2,9c1.1,1.6,2.3,2.7,3.2,3.4
		c0.3,1.4,0.6,2.9,1.1,4.5c0.8,2.9,1.8,5.4,2.8,7.5c3.7,1.8,9.2,3.8,16.1,3.9c3.5,0.1,8.4,0.1,13.9-2.7c3.2-1.6,5.4-3.5,6.9-5
		c1.4,0.7,3.9,1.6,6.9,1.3c5.4-0.7,8.7-5.1,10.4-7.5c3.5-4.8,4.4-9.9,4.6-12.5c1-2.5,2.6-7.3,1.2-12.5c-0.3-1.2-1-2.5-2.3-5
		c-1.4-2.8-2.8-5.5-5.1-8.1c-2-2.2-2.9-2.4-5.3-4.5c-2.1-1.8-4.8-4.6-7.4-9C58,17.3,52.7,15.4,49.1,14.4z"/>
	<path class="st33" d="M49.1,14.5c-3.8-1-5.7-1-7.3-0.7c-5,0.9-8.2,4.7-9.5,6.5c-1.1,0.3-8.3,2.5-11.4,10c-1.5,3.5-1.4,6.8-1.2,8.7
		c0.3,3,1.1,5.1,0,7.5c-0.6,1.3-1.2,1.4-2.4,2.8c-3.1,3.8-3.2,8.7-3.2,9c0,4.5,2.2,7.7,3.2,9c1.1,1.6,2.3,2.7,3.2,3.4
		c0.3,1.4,0.6,2.9,1.1,4.5c0.8,2.9,1.8,5.4,2.7,7.5c3.7,1.8,9.2,3.8,16.1,3.9c3.5,0.1,8.3,0.1,13.8-2.7c3.1-1.6,5.4-3.5,6.9-5
		c1.4,0.7,3.9,1.6,6.9,1.2c5.4-0.7,8.6-5.1,10.3-7.5c3.5-4.8,4.3-9.9,4.6-12.5c1-2.5,2.6-7.3,1.1-12.5c-0.3-1.2-1-2.5-2.3-5
		c-1.4-2.8-2.8-5.5-5.1-8.1c-2-2.2-2.9-2.4-5.3-4.5c-2-1.8-4.8-4.6-7.4-9C58,17.3,52.7,15.5,49.1,14.5z"/>
	<path class="st34" d="M49.1,14.6c-3.8-1-5.7-1-7.3-0.7c-5,0.9-8.1,4.7-9.5,6.5c-1.1,0.3-8.3,2.5-11.4,10c-1.5,3.5-1.4,6.8-1.2,8.7
		c0.3,3,1.1,5.1,0,7.5c-0.6,1.3-1.2,1.4-2.4,2.8c-3.1,3.8-3.2,8.7-3.2,9c0,4.5,2.2,7.7,3.2,9c1.1,1.6,2.3,2.7,3.2,3.4
		c0.3,1.4,0.6,2.9,1.1,4.5c0.8,2.9,1.8,5.3,2.7,7.5c3.6,1.8,9.2,3.8,16,3.9c3.5,0.1,8.3,0.1,13.8-2.7c3.1-1.6,5.4-3.5,6.9-5
		c1.4,0.7,3.9,1.6,6.9,1.2c5.4-0.7,8.6-5.1,10.3-7.5c3.5-4.8,4.3-9.8,4.6-12.4c1-2.4,2.6-7.3,1.1-12.4c-0.3-1.2-1-2.5-2.3-5
		c-1.4-2.8-2.8-5.5-5.1-8c-2-2.2-2.9-2.4-5.3-4.5c-2-1.8-4.8-4.6-7.4-9C57.9,17.4,52.7,15.5,49.1,14.6z"/>
	<path class="st35" d="M49.1,14.6c-3.8-1-5.7-1-7.3-0.7c-5,0.9-8.1,4.7-9.4,6.5c-1.1,0.3-8.3,2.5-11.3,10c-1.4,3.5-1.4,6.8-1.2,8.7
		c0.3,3,1.1,5.1,0,7.5c-0.6,1.3-1.2,1.4-2.4,2.8c-3.1,3.8-3.2,8.7-3.2,9c0,4.5,2.2,7.6,3.2,9c1.1,1.6,2.3,2.7,3.2,3.4
		c0.3,1.4,0.6,2.9,1.1,4.5c0.8,2.8,1.8,5.3,2.7,7.5c3.6,1.8,9.1,3.8,16,3.9c3.4,0.1,8.3,0.1,13.8-2.7c3.1-1.6,5.4-3.5,6.9-5
		c1.4,0.7,3.9,1.6,6.9,1.2c5.4-0.7,8.6-5.1,10.3-7.5c3.5-4.8,4.3-9.8,4.6-12.4c1-2.4,2.6-7.3,1.1-12.4c-0.3-1.2-1-2.5-2.3-5
		c-1.4-2.8-2.8-5.5-5-8c-2-2.2-2.9-2.4-5.3-4.5c-2-1.8-4.8-4.6-7.4-9C57.9,17.4,52.7,15.6,49.1,14.6z"/>
	<path class="st36" d="M49.1,14.7c-3.8-1-5.6-1-7.2-0.7c-4.9,0.9-8.1,4.7-9.4,6.5c-1.1,0.3-8.2,2.5-11.3,10
		c-1.4,3.5-1.4,6.8-1.2,8.6c0.3,3,1.1,5.1,0,7.4c-0.6,1.3-1.2,1.4-2.4,2.8c-3.1,3.8-3.2,8.7-3.2,8.9c0,4.5,2.2,7.6,3.2,8.9
		c1.1,1.6,2.3,2.7,3.2,3.4c0.3,1.4,0.6,2.9,1.1,4.5c0.8,2.8,1.8,5.3,2.7,7.4c3.6,1.8,9.1,3.8,15.9,3.9c3.4,0.1,8.3,0.1,13.7-2.7
		c3.1-1.6,5.4-3.5,6.8-5c1.4,0.7,3.8,1.6,6.8,1.2c5.4-0.7,8.6-5.1,10.3-7.4c3.4-4.7,4.3-9.8,4.6-12.4c1-2.4,2.6-7.2,1.1-12.4
		c-0.3-1.2-1-2.5-2.3-5c-1.4-2.8-2.8-5.5-5-8c-2-2.2-2.9-2.4-5.3-4.5c-2-1.8-4.7-4.6-7.4-8.9C57.9,17.5,52.7,15.6,49.1,14.7z"/>
	<path class="st37" d="M49.1,14.8c-3.8-1-5.6-1-7.2-0.7c-4.9,0.9-8.1,4.7-9.4,6.5c-1.1,0.3-8.2,2.5-11.3,9.9
		c-1.4,3.5-1.4,6.8-1.2,8.6c0.3,3,1.1,5.1,0,7.4c-0.6,1.3-1.2,1.4-2.4,2.8c-3.1,3.8-3.1,8.6-3.1,8.9c0,4.5,2.2,7.6,3.1,8.9
		c1.1,1.6,2.3,2.7,3.1,3.3c0.3,1.4,0.6,2.9,1,4.5c0.8,2.8,1.8,5.3,2.7,7.4c3.6,1.8,9.1,3.8,15.9,3.9c3.4,0.1,8.3,0.1,13.7-2.6
		c3.1-1.6,5.4-3.5,6.8-4.9c1.4,0.7,3.8,1.6,6.8,1.2c5.3-0.7,8.5-5.1,10.2-7.4c3.4-4.7,4.3-9.8,4.5-12.4c1-2.4,2.6-7.2,1.1-12.4
		c-0.3-1.2-1-2.5-2.3-4.9c-1.4-2.8-2.8-5.4-5-8c-2-2.2-2.8-2.4-5.2-4.5c-2-1.8-4.7-4.5-7.3-8.9C57.9,17.6,52.7,15.7,49.1,14.8z"/>
	<path class="st38" d="M49.2,14.8c-3.8-1-5.6-1-7.2-0.7c-4.9,0.9-8.1,4.7-9.4,6.5c-1.1,0.3-8.2,2.4-11.2,9.9
		C20,34,20,37.3,20.2,39.1c0.3,3,1.1,5.1,0,7.4c-0.6,1.3-1.2,1.3-2.4,2.8c-3.1,3.8-3.1,8.6-3.1,8.9c0,4.5,2.2,7.6,3.1,8.9
		c1.1,1.6,2.3,2.7,3.1,3.3c0.3,1.4,0.6,2.9,1,4.5c0.8,2.8,1.8,5.3,2.7,7.4c3.6,1.8,9.1,3.8,15.8,3.9c3.4,0.1,8.2,0.1,13.6-2.6
		c3.1-1.6,5.4-3.5,6.8-4.9c1.4,0.7,3.8,1.6,6.8,1.2c5.3-0.7,8.5-5.1,10.2-7.4c3.4-4.7,4.3-9.8,4.5-12.3c1-2.4,2.6-7.2,1.1-12.3
		c-0.3-1.2-1-2.5-2.3-4.9c-1.4-2.7-2.8-5.4-5-8c-1.9-2.2-2.8-2.4-5.2-4.5c-2-1.8-4.7-4.5-7.3-8.9C57.9,17.6,52.7,15.8,49.2,14.8z"/>
	<path class="st39" d="M49.2,14.9c-3.8-1-5.6-1-7.2-0.7c-4.9,0.9-8,4.7-9.3,6.5c-1.1,0.3-8.2,2.4-11.2,9.9c-1.4,3.5-1.4,6.8-1.2,8.6
		c0.3,3,1.1,5.1,0,7.4c-0.6,1.3-1.2,1.3-2.4,2.8c-3.1,3.8-3.1,8.6-3.1,8.9c0,4.4,2.2,7.6,3.1,8.9c1.1,1.6,2.3,2.7,3.1,3.3
		c0.3,1.4,0.6,2.9,1,4.4c0.8,2.8,1.8,5.2,2.8,7.3c3.6,1.8,9,3.8,15.8,3.9c3.4,0.1,8.2,0.1,13.6-2.6c3.1-1.6,5.3-3.5,6.8-4.9
		c1.4,0.7,3.8,1.6,6.8,1.2c5.3-0.7,8.5-5.1,10.2-7.4c3.4-4.7,4.3-9.7,4.5-12.3c1-2.4,2.6-7.2,1.1-12.3c-0.3-1.2-1-2.5-2.3-4.9
		c-1.4-2.7-2.8-5.4-5-7.9c-1.9-2.2-2.8-2.4-5.2-4.4c-2-1.7-4.7-4.5-7.3-8.9C57.9,17.7,52.7,15.8,49.2,14.9z"/>
	<path class="st40" d="M49.2,14.9c-3.7-1-5.6-1-7.2-0.7c-4.9,0.9-8,4.7-9.3,6.5c-1.1,0.3-8.1,2.4-11.2,9.9c-1.4,3.5-1.4,6.7-1.2,8.6
		c0.3,3,1.1,5,0,7.4c-0.6,1.3-1.2,1.3-2.3,2.8c-3,3.8-3.1,8.6-3.1,8.9c0,4.4,2.2,7.6,3.1,8.9c1.1,1.6,2.3,2.7,3.1,3.3
		c0.3,1.4,0.6,2.9,1,4.4c0.8,2.8,1.7,5.3,2.7,7.4c3.6,1.8,9,3.7,15.7,3.9c3.4,0.1,8.2,0.1,13.6-2.6c3.1-1.6,5.3-3.5,6.8-4.9
		c1.4,0.7,3.8,1.6,6.8,1.2c5.3-0.7,8.5-5.1,10.1-7.4c3.4-4.7,4.3-9.7,4.5-12.3c1-2.4,2.5-7.2,1.1-12.3c-0.3-1.2-1-2.5-2.3-4.9
		c-1.4-2.7-2.8-5.4-5-7.9c-1.9-2.2-2.8-2.4-5.2-4.4c-2-1.7-4.7-4.5-7.3-8.9C57.9,17.7,52.7,15.9,49.2,14.9z"/>
	<path class="st41" d="M49.2,15c-3.7-1-5.6-1-7.1-0.7c-4.9,0.9-8,4.7-9.3,6.4c-1.1,0.3-8.1,2.4-11.2,9.9c-1.4,3.5-1.4,6.7-1.2,8.5
		c0.3,3,1.1,5,0,7.4c-0.6,1.3-1.2,1.3-2.3,2.8c-3,3.8-3.1,8.6-3.1,8.8c0,4.4,2.2,7.6,3.1,8.8c1.1,1.6,2.3,2.6,3.1,3.3
		c0.3,1.4,0.6,2.9,1,4.4c0.8,2.8,1.7,5.3,2.7,7.4c3.6,1.7,9,3.7,15.7,3.9C44,86,48.8,86,54.1,83.3c3.1-1.6,5.3-3.5,6.7-4.9
		c1.4,0.7,3.8,1.6,6.7,1.2c5.3-0.7,8.4-5,10.1-7.4c3.4-4.7,4.2-9.7,4.5-12.3c1-2.4,2.5-7.2,1.1-12.3c-0.3-1.2-1-2.4-2.2-4.9
		c-1.4-2.7-2.8-5.4-5-7.9c-1.9-2.2-2.8-2.4-5.2-4.4c-2-1.7-4.7-4.5-7.3-8.8C57.9,17.8,52.7,16,49.2,15z"/>
	<path class="st42" d="M49.2,15.1c-3.7-1-5.5-1-7.1-0.7c-4.9,0.9-8,4.7-9.2,6.4c-1.1,0.3-8.1,2.4-11.1,9.8c-1.4,3.5-1.4,6.7-1.2,8.5
		c0.3,3,1.1,5,0,7.3c-0.6,1.3-1.2,1.3-2.3,2.8c-3,3.8-3.1,8.5-3.1,8.8c0,4.4,2.2,7.5,3.1,8.8c1.1,1.6,2.3,2.6,3.1,3.3
		c0.3,1.4,0.6,2.9,1,4.4c0.8,2.8,1.7,5.3,2.7,7.3c3.6,1.7,9,3.7,15.7,3.8c3.4,0.1,8.1,0.1,13.5-2.6c3.1-1.5,5.3-3.5,6.7-4.9
		c1.4,0.7,3.8,1.6,6.7,1.2c5.3-0.7,8.4-5,10.1-7.3c3.4-4.7,4.2-9.7,4.5-12.2c1-2.4,2.5-7.2,1.1-12.2c-0.3-1.2-1-2.4-2.2-4.9
		c-1.4-2.7-2.8-5.4-4.9-7.9c-1.9-2.2-2.8-2.4-5.2-4.4c-2-1.7-4.7-4.5-7.2-8.8C57.9,17.9,52.7,16,49.2,15.1z"/>
</g>
</svg>
