<?xml version="1.0" encoding="utf-8"?>
<!-- Generator: Adobe Illustrator 21.1.0, SVG Export Plug-In . SVG Version: 6.00 Build 0)  -->
<svg version="1.1" id="Layer_1" xmlns="http://www.w3.org/2000/svg" xmlns:xlink="http://www.w3.org/1999/xlink" x="0px" y="0px"
	 viewBox="0 0 100 100" style="enable-background:new 0 0 100 100;" xml:space="preserve">
<style type="text/css">
	.st0{fill:#4F829E;}
	.st1{fill:#F2F2F2;}
	.st2{fill:#7A5F2E;stroke:#000000;stroke-width:0.5;stroke-miterlimit:10;}
	.st3{fill:#9B9B9B;stroke:#000000;stroke-miterlimit:10;}
</style>
<g id="Layer_1_1_">
	<g>
		<rect x="2.5" y="2.5" class="st0" width="95" height="95"/>
		<path d="M95,5v90H5V5H95 M100,0H0v100h100V0L100,0z"/>
	</g>
</g>
<g>
	<path class="st1" d="M15.2,62.7c-0.1-2.2,1-4.5,2.4-5.1l0,0c1.4-0.6,2.8,0.7,2.9,2.9l0.7,12.8c-0.1,1.9-0.3,2.9-0.6,3.1
		C19.8,76.9,17.9,72.5,15.2,62.7z"/>
	<path class="st1" d="M20,63.1c1.1-1.9,1.1-4.5-0.1-5.8l0,0c-1-1.3-2.8-0.7-3.8,1l-6,10.9c-0.7,1.7-1,2.8-0.8,3
		C9.9,73.5,13.4,70.3,20,63.1z"/>
	<path class="st2" d="M17.2,66.3L17.2,66.3c1,0.1,2.1-0.8,2.2-2.1l9.7-51.5c0.2-1.2-0.5-2.5-1.3-2.6l0,0c-1-0.1-2.1,0.8-2.2,2.1
		l-9.7,51.5C15.7,64.9,16.3,66.1,17.2,66.3z"/>
	<path class="st3" d="M32.2,19.7c-4.3-0.7-8.5-1.4-12.8-2.1l8.7-11.1L32.2,19.7z"/>
	<path class="st1" d="M16.9,63.4c-0.6-1.9-0.1-4.5,1-5.6l0,0c1.3-1.1,2.9-0.5,3.6,1.4l3.9,11.3c0.4,1.7,0.5,2.8,0.2,3.1
		C24.9,74.3,22,71,16.9,63.4z"/>
	<path class="st1" d="M19.2,63.2c1.5-1.5,2-4,1.3-5.7l0,0c-0.7-1.7-2.4-1.8-3.7-0.4l-8,8.6c-1,1.4-1.6,2.3-1.4,2.8
		C7.6,69.8,11.6,68,19.2,63.2z"/>
</g>
<g>
	<path class="st1" d="M41.4,56.6c0.8-2.1,2.6-3.9,4.2-4l0,0c1.6-0.1,2.3,1.6,1.6,3.7l-4.1,12.2c-0.8,1.7-1.4,2.6-1.7,2.7
		C40.4,71.4,40.3,66.6,41.4,56.6z"/>
	<path class="st1" d="M45.7,58.5c1.8-1.4,2.7-3.9,2.1-5.5l0,0c-0.5-1.5-2.3-1.6-3.9-0.3L34.2,61c-1.2,1.3-2,2.3-1.9,2.6
		C32.4,64.9,36.8,63.1,45.7,58.5z"/>
	<path class="st2" d="M42,60.6L42,60.6c0.9,0.4,2.2-0.1,2.9-1.2l28.4-45.1c0.6-1.1,0.5-2.5-0.3-2.9l0,0c-0.9-0.4-2.2,0.1-2.9,1.2
		L41.7,57.7C41.1,58.8,41.2,60.1,42,60.6z"/>
	<path class="st3" d="M73.5,21.8c-3.7-2-7.4-4.1-11.2-6.1l12.3-7.6L73.5,21.8z"/>
	<path class="st1" d="M42.7,57.7c0.1-2,1.6-4.3,3-4.9l0,0c1.7-0.6,3,0.5,2.8,2.5L48.1,67c-0.3,1.7-0.6,2.8-1,3
		C46.1,70.6,44.6,66.5,42.7,57.7z"/>
	<path class="st1" d="M45,58.3c2-1,3.4-3.1,3.4-5l0,0c0-1.8-1.6-2.5-3.3-1.6l-10.7,5.4c-1.5,1-2.3,1.7-2.3,2.2
		C31.6,60.7,36,60.3,45,58.3z"/>
</g>
<g>
	<path class="st1" d="M46.7,79.6c1.4-1.8,3.7-3,5.2-2.7l0,0c1.5,0.4,1.7,2.1,0.4,4l-7.8,10.6c-1.3,1.4-2.1,2.1-2.5,2.1
		C41.1,93.4,42.5,88.8,46.7,79.6z"/>
	<path class="st1" d="M50.2,82.5c2.1-0.9,3.8-2.9,3.7-4.6l0,0c0-1.6-1.7-2.1-3.6-1.4l-11.9,5.3c-1.6,0.9-2.6,1.6-2.7,1.9
		C35.5,85.1,40.3,84.5,50.2,82.5z"/>
	<path class="st2" d="M46,83.5L46,83.5c0.7,0.6,2.2,0.5,3.1-0.4l41.3-35.5c1-0.9,1.2-2.2,0.6-2.9l0,0c-0.7-0.6-2.2-0.5-3.1,0.4
		L46.7,80.7C45.7,81.5,45.4,82.9,46,83.5z"/>
	<path class="st3" d="M88.3,54.9c-3-2.9-5.8-5.9-8.8-8.9l14.1-3.9L88.3,54.9z"/>
	<path class="st1" d="M47.6,81c0.8-1.9,2.9-3.7,4.5-3.9l0,0c1.8-0.2,2.7,1.2,1.9,3.1l-4.2,11.2c-0.8,1.6-1.4,2.5-1.8,2.6
		C46.8,94.2,46.7,89.9,47.6,81z"/>
	<path class="st1" d="M49.6,82.2c2.2-0.4,4.2-2.1,4.8-3.8l0,0c0.6-1.7-0.7-2.8-2.7-2.4l-11.9,2.3c-1.7,0.6-2.8,1-2.9,1.5
		C36.1,80.8,40.4,81.6,49.6,82.2z"/>
</g>
</svg>
